Bitcount-VariationPixels.ufo
<glyph name="CircleSquare@line1000" format="2">
  <advance width="100"/>
  <outline>
    <contour>
      <point x="52" y="48" type="line"/>
      <point x="52" y="0" type="line"/>
      <point x="48" y="0" type="line"/>
      <point x="48" y="48" type="line"/>
      <point x="0" y="48" type="line"/>
      <point x="0" y="52" type="line"/>
      <point x="48" y="52" type="line"/>
      <point x="48" y="100" type="line"/>
      <point x="52" y="100" type="line"/>
      <point x="52" y="52" type="line"/>
      <point x="100" y="52" type="line"/>
      <point x="100" y="48" type="line"/>
    </contour>
  </outline>
</glyph>
<glyph name="Instance@Circle-Book" format="2">
  <advance width="100"/>
  <outline>
    <contour>
      <point x="50" y="10.0" type="line"/>
      <point x="50" y="50.0" type="line"/>
      <point x="50" y="50.0" type="line"/>
      <point x="50" y="50.0" type="line"/>
      <point x="50" y="50.0"/>
      <point x="50" y="50.0"/>
      <point x="50" y="50.0" type="qcurve"/>
      <point x="50" y="50.0" type="line"/>
      <point x="50" y="50.0" type="line"/>
      <point x="10" y="50.0" type="line"/>
      <point x="10" y="48.0" type="line"/>
      <point x="10" y="48.0" type="line"/>
      <point x="10.0" y="31.0"/>
      <point x="31.0" y="10.0"/>
      <point x="48" y="10.0" type="qcurve"/>
      <point x="48" y="10.0" type="line"/>
    </contour>
    <contour>
      <point x="50" y="90.0" type="line"/>
      <point x="50" y="50.0" type="line"/>
      <point x="50" y="50.0" type="line"/>
      <point x="50" y="50.0" type="line"/>
      <point x="50" y="50.0"/>
      <point x="50" y="50.0"/>
      <point x="50" y="50.0" type="qcurve"/>
      <point x="50" y="50.0" type="line"/>
      <point x="50" y="50.0" type="line"/>
      <point x="90" y="50.0" type="line"/>
      <point x="90" y="52.0" type="line"/>
      <point x="90" y="52.0" type="line"/>
      <point x="90.0" y="69.0"/>
      <point x="69.0" y="90.0"/>
      <point x="52" y="90.0" type="qcurve" smooth="yes"/>
      <point x="52" y="90.0" type="line"/>
    </contour>
    <contour>
      <point x="50" y="10.0" type="line"/>
      <point x="52" y="10.0" type="line"/>
      <point x="52" y="10.0" type="line"/>
      <point x="69.0" y="10.0"/>
      <point x="90.0" y="31.0"/>
      <point x="90" y="48.0" type="qcurve"/>
      <point x="90" y="48.0" type="line"/>
      <point x="90" y="50.0" type="line"/>
      <point x="50" y="50.0" type="line"/>
      <point x="50" y="50.0" type="line"/>
      <point x="50" y="50.0" type="line"/>
      <point x="50" y="50.0"/>
      <point x="50" y="50.0"/>
      <point x="50" y="50.0" type="qcurve"/>
      <point x="50" y="50.0" type="line"/>
      <point x="50" y="50.0" type="line"/>
    </contour>
    <contour>
      <point x="50" y="90.0" type="line"/>
      <point x="48" y="90.0" type="line"/>
      <point x="48" y="90.0" type="line" smooth="yes"/>
      <point x="31.0" y="90.0"/>
      <point x="10.0" y="69.0"/>
      <point x="10" y="52.0" type="qcurve"/>
      <point x="10" y="52.0" type="line"/>
      <point x="10" y="50.0" type="line"/>
      <point x="50" y="50.0" type="line"/>
      <point x="50" y="50.0" type="line"/>
      <point x="50" y="50.0" type="line"/>
      <point x="50" y="50.0"/>
      <point x="50" y="50.0"/>
      <point x="50" y="50.0" type="qcurve"/>
      <point x="50" y="50.0" type="line"/>
      <point x="50" y="50.0" type="line"/>
    </contour>
  </outline>
</glyph>
<glyph name="Instance@LineCircle-Regular" format="2">
  <advance width="100"/>
  <outline>
    <contour>
      <point x="50" y="0.0" type="line"/>
      <point x="50" y="16.0" type="line"/>
      <point x="50" y="16.0" type="line"/>
      <point x="50" y="16.0" type="line" smooth="yes"/>
      <point x="35.0" y="16.0"/>
      <point x="16.0" y="35.0"/>
      <point x="16" y="50.0" type="qcurve"/>
      <point x="16" y="50.0" type="line"/>
      <point x="16" y="50.0" type="line"/>
      <point x="0" y="50.0" type="line"/>
      <point x="0" y="48.0" type="line"/>
      <point x="0" y="48.0" type="line"/>
      <point x="0.0" y="27.0"/>
      <point x="27.0" y="0.0"/>
      <point x="48" y="0.0" type="qcurve"/>
      <point x="48" y="0.0" type="line"/>
    </contour>
    <contour>
      <point x="50" y="100.0" type="line"/>
      <point x="50" y="84.0" type="line"/>
      <point x="50" y="84.0" type="line"/>
      <point x="50" y="84.0" type="line"/>
      <point x="65.0" y="84.0"/>
      <point x="84.0" y="65.0"/>
      <point x="84" y="50.0" type="qcurve"/>
      <point x="84" y="50.0" type="line"/>
      <point x="84" y="50.0" type="line"/>
      <point x="100" y="50.0" type="line"/>
      <point x="100" y="52.0" type="line"/>
      <point x="100" y="52.0" type="line"/>
      <point x="100.0" y="73.0"/>
      <point x="73.0" y="100.0"/>
      <point x="52" y="100.0" type="qcurve" smooth="yes"/>
      <point x="52" y="100.0" type="line"/>
    </contour>
    <contour>
      <point x="50" y="0.0" type="line"/>
      <point x="52" y="0.0" type="line"/>
      <point x="52" y="0.0" type="line"/>
      <point x="73.0" y="0.0"/>
      <point x="100.0" y="27.0"/>
      <point x="100" y="48.0" type="qcurve"/>
      <point x="100" y="48.0" type="line"/>
      <point x="100" y="50.0" type="line"/>
      <point x="84" y="50.0" type="line"/>
      <point x="84" y="50.0" type="line"/>
      <point x="84" y="50.0" type="line"/>
      <point x="84.0" y="35.0"/>
      <point x="65.0" y="16.0"/>
      <point x="50" y="16.0" type="qcurve" smooth="yes"/>
      <point x="50" y="16.0" type="line"/>
      <point x="50" y="16.0" type="line"/>
    </contour>
    <contour>
      <point x="50" y="100.0" type="line"/>
      <point x="48" y="100.0" type="line"/>
      <point x="48" y="100.0" type="line" smooth="yes"/>
      <point x="27.0" y="100.0"/>
      <point x="0.0" y="73.0"/>
      <point x="0" y="52.0" type="qcurve"/>
      <point x="0" y="52.0" type="line"/>
      <point x="0" y="50.0" type="line"/>
      <point x="16" y="50.0" type="line"/>
      <point x="16" y="50.0" type="line"/>
      <point x="16" y="50.0" type="line"/>
      <point x="16.0" y="65.0"/>
      <point x="35.0" y="84.0"/>
      <point x="50" y="84.0" type="qcurve"/>
      <point x="50" y="84.0" type="line"/>
      <point x="50" y="84.0" type="line"/>
    </contour>
  </outline>
</glyph>
<glyph name="Instance@LineSquare-Semibold" format="2">
  <advance width="100"/>
  <outline>
    <contour>
      <point x="-8" y="-8" type="line"/>
      <point x="-8" y="108" type="line"/>
      <point x="108" y="108" type="line"/>
      <point x="108" y="-8" type="line"/>
    </contour>
    <contour>
      <point x="8" y="92" type="line"/>
      <point x="8" y="8" type="line"/>
      <point x="92" y="8" type="line"/>
      <point x="92" y="92" type="line"/>
    </contour>
  </outline>
</glyph>
<glyph name="Instance@LineSquare-Thin" format="2">
  <advance width="100"/>
  <outline>
    <contour>
      <point x="20" y="20" type="line"/>
      <point x="20" y="80" type="line"/>
      <point x="80" y="80" type="line"/>
      <point x="80" y="20" type="line"/>
    </contour>
    <contour>
      <point x="36" y="64" type="line"/>
      <point x="36" y="36" type="line"/>
      <point x="64" y="36" type="line"/>
      <point x="64" y="64" type="line"/>
    </contour>
  </outline>
</glyph>
<glyph name="Instance@OpenCircle-Black" format="2">
  <advance width="100"/>
  <outline>
    <contour>
      <point x="25" y="-50.0" type="line"/>
      <point x="25" y="25.0" type="line"/>
      <point x="25" y="25.0" type="line"/>
      <point x="25" y="25.0" type="line"/>
      <point x="25" y="25.0"/>
      <point x="25" y="25.0"/>
      <point x="25" y="25.0" type="qcurve"/>
      <point x="25" y="25.0" type="line"/>
      <point x="25" y="25.0" type="line"/>
      <point x="-50" y="25.0" type="line"/>
      <point x="-50" y="23.0" type="line"/>
      <point x="-50" y="23.0" type="line"/>
      <point x="-50.0" y="-9.0"/>
      <point x="-9.0" y="-50.0"/>
      <point x="23" y="-50.0" type="qcurve"/>
      <point x="23" y="-50.0" type="line"/>
    </contour>
    <contour>
      <point x="75" y="150.0" type="line"/>
      <point x="75" y="75.0" type="line"/>
      <point x="75" y="75.0" type="line"/>
      <point x="75" y="75.0" type="line"/>
      <point x="75" y="75.0"/>
      <point x="75" y="75.0"/>
      <point x="75" y="75.0" type="qcurve"/>
      <point x="75" y="75.0" type="line"/>
      <point x="75" y="75.0" type="line"/>
      <point x="150" y="75.0" type="line"/>
      <point x="150" y="77.0" type="line"/>
      <point x="150" y="77.0" type="line"/>
      <point x="150.0" y="109.0"/>
      <point x="109.0" y="150.0"/>
      <point x="77" y="150.0" type="qcurve" smooth="yes"/>
      <point x="77" y="150.0" type="line"/>
    </contour>
    <contour>
      <point x="75" y="-50.0" type="line"/>
      <point x="77" y="-50.0" type="line"/>
      <point x="77" y="-50.0" type="line"/>
      <point x="109.0" y="-50.0"/>
      <point x="150.0" y="-9.0"/>
      <point x="150" y="23.0" type="qcurve"/>
      <point x="150" y="23.0" type="line"/>
      <point x="150" y="25.0" type="line"/>
      <point x="75" y="25.0" type="line"/>
      <point x="75" y="25.0" type="line"/>
      <point x="75" y="25.0" type="line"/>
      <point x="75" y="25.0"/>
      <point x="75" y="25.0"/>
      <point x="75" y="25.0" type="qcurve"/>
      <point x="75" y="25.0" type="line"/>
      <point x="75" y="25.0" type="line"/>
    </contour>
    <contour>
      <point x="25" y="150.0" type="line"/>
      <point x="23" y="150.0" type="line"/>
      <point x="23" y="150.0" type="line" smooth="yes"/>
      <point x="-9.0" y="150.0"/>
      <point x="-50.0" y="109.0"/>
      <point x="-50" y="77.0" type="qcurve"/>
      <point x="-50" y="77.0" type="line"/>
      <point x="-50" y="75.0" type="line"/>
      <point x="25" y="75.0" type="line"/>
      <point x="25" y="75.0" type="line"/>
      <point x="25" y="75.0" type="line"/>
      <point x="25" y="75.0"/>
      <point x="25" y="75.0"/>
      <point x="25" y="75.0" type="qcurve"/>
      <point x="25" y="75.0" type="line"/>
      <point x="25" y="75.0" type="line"/>
    </contour>
  </outline>
</glyph>
<glyph name="Instance@OpenCircle-Bold" format="2">
  <advance width="100"/>
  <outline>
    <contour>
      <point x="30" y="-30.0" type="line"/>
      <point x="30" y="30.0" type="line"/>
      <point x="30" y="30.0" type="line"/>
      <point x="30" y="30.0" type="line"/>
      <point x="30" y="30.0"/>
      <point x="30" y="30.0"/>
      <point x="30" y="30.0" type="qcurve"/>
      <point x="30" y="30.0" type="line"/>
      <point x="30" y="30.0" type="line"/>
      <point x="-30" y="30.0" type="line"/>
      <point x="-30" y="28.0" type="line"/>
      <point x="-30" y="28.0" type="line"/>
      <point x="-30.0" y="3.0"/>
      <point x="3.0" y="-30.0"/>
      <point x="28" y="-30.0" type="qcurve"/>
      <point x="28" y="-30.0" type="line"/>
    </contour>
    <contour>
      <point x="70" y="130.0" type="line"/>
      <point x="70" y="70.0" type="line"/>
      <point x="70" y="70.0" type="line"/>
      <point x="70" y="70.0" type="line"/>
      <point x="70" y="70.0"/>
      <point x="70" y="70.0"/>
      <point x="70" y="70.0" type="qcurve"/>
      <point x="70" y="70.0" type="line"/>
      <point x="70" y="70.0" type="line"/>
      <point x="130" y="70.0" type="line"/>
      <point x="130" y="72.0" type="line"/>
      <point x="130" y="72.0" type="line"/>
      <point x="130.0" y="97.0"/>
      <point x="97.0" y="130.0"/>
      <point x="72" y="130.0" type="qcurve" smooth="yes"/>
      <point x="72" y="130.0" type="line"/>
    </contour>
    <contour>
      <point x="70" y="-30.0" type="line"/>
      <point x="72" y="-30.0" type="line"/>
      <point x="72" y="-30.0" type="line"/>
      <point x="97.0" y="-30.0"/>
      <point x="130.0" y="3.0"/>
      <point x="130" y="28.0" type="qcurve"/>
      <point x="130" y="28.0" type="line"/>
      <point x="130" y="30.0" type="line"/>
      <point x="70" y="30.0" type="line"/>
      <point x="70" y="30.0" type="line"/>
      <point x="70" y="30.0" type="line"/>
      <point x="70" y="30.0"/>
      <point x="70" y="30.0"/>
      <point x="70" y="30.0" type="qcurve"/>
      <point x="70" y="30.0" type="line"/>
      <point x="70" y="30.0" type="line"/>
    </contour>
    <contour>
      <point x="30" y="130.0" type="line"/>
      <point x="28" y="130.0" type="line"/>
      <point x="28" y="130.0" type="line" smooth="yes"/>
      <point x="3.0" y="130.0"/>
      <point x="-30.0" y="97.0"/>
      <point x="-30" y="72.0" type="qcurve"/>
      <point x="-30" y="72.0" type="line"/>
      <point x="-30" y="70.0" type="line"/>
      <point x="30" y="70.0" type="line"/>
      <point x="30" y="70.0" type="line"/>
      <point x="30" y="70.0" type="line"/>
      <point x="30" y="70.0"/>
      <point x="30" y="70.0"/>
      <point x="30" y="70.0" type="qcurve"/>
      <point x="30" y="70.0" type="line"/>
      <point x="30" y="70.0" type="line"/>
    </contour>
  </outline>
</glyph>
<glyph name="Instance@OpenCircle-Semibold" format="2">
  <advance width="100"/>
  <outline>
    <contour>
      <point x="35" y="-8.200000000000003" type="line"/>
      <point x="35" y="35.45" type="line"/>
      <point x="35" y="35.45" type="line"/>
      <point x="35" y="35.45" type="line"/>
      <point x="35" y="35.45"/>
      <point x="35" y="35.45"/>
      <point x="35" y="35.45" type="qcurve"/>
      <point x="35" y="35.45" type="line"/>
      <point x="35" y="35.45" type="line"/>
      <point x="-8" y="35.45" type="line"/>
      <point x="-8" y="33.45" type="line"/>
      <point x="-8" y="33.45" type="line"/>
      <point x="-8" y="15.957"/>
      <point x="16" y="-8.200000000000003"/>
      <point x="33" y="-8.200000000000003" type="qcurve"/>
      <point x="33" y="-8.200000000000003" type="line"/>
    </contour>
    <contour>
      <point x="65" y="108.2" type="line"/>
      <point x="65" y="64.55" type="line"/>
      <point x="65" y="64.55" type="line"/>
      <point x="65" y="64.55" type="line"/>
      <point x="65" y="64.55"/>
      <point x="65" y="64.55"/>
      <point x="65" y="64.55" type="qcurve"/>
      <point x="65" y="64.55" type="line"/>
      <point x="65" y="64.55" type="line"/>
      <point x="108" y="64.55" type="line"/>
      <point x="108" y="66.55" type="line"/>
      <point x="108" y="66.55" type="line"/>
      <point x="108" y="84.043"/>
      <point x="84" y="108.2"/>
      <point x="67" y="108.2" type="qcurve"/>
      <point x="67" y="108.2" type="line"/>
    </contour>
    <contour>
      <point x="65" y="-8.200000000000003" type="line"/>
      <point x="67" y="-8.200000000000003" type="line"/>
      <point x="67" y="-8.200000000000003" type="line"/>
      <point x="84" y="-8.200000000000003"/>
      <point x="108" y="15.957"/>
      <point x="108" y="33.45" type="qcurve"/>
      <point x="108" y="33.45" type="line"/>
      <point x="108" y="35.45" type="line"/>
      <point x="65" y="35.45" type="line"/>
      <point x="65" y="35.45" type="line"/>
      <point x="65" y="35.45" type="line"/>
      <point x="65" y="35.45"/>
      <point x="65" y="35.45"/>
      <point x="65" y="35.45" type="qcurve"/>
      <point x="65" y="35.45" type="line"/>
      <point x="65" y="35.45" type="line"/>
    </contour>
    <contour>
      <point x="35" y="108.2" type="line"/>
      <point x="33" y="108.2" type="line"/>
      <point x="33" y="108.2" type="line"/>
      <point x="16" y="108.2"/>
      <point x="-8" y="84.043"/>
      <point x="-8" y="66.55" type="qcurve"/>
      <point x="-8" y="66.55" type="line"/>
      <point x="-8" y="64.55" type="line"/>
      <point x="35" y="64.55" type="line"/>
      <point x="35" y="64.55" type="line"/>
      <point x="35" y="64.55" type="line"/>
      <point x="35" y="64.55"/>
      <point x="35" y="64.55"/>
      <point x="35" y="64.55" type="qcurve"/>
      <point x="35" y="64.55" type="line"/>
      <point x="35" y="64.55" type="line"/>
    </contour>
  </outline>
</glyph>
<glyph name="Instance@OpenCircle-Thin" format="2">
  <advance width="100"/>
  <outline>
    <contour>
      <point x="43" y="20.0" type="line"/>
      <point x="43" y="42.5" type="line"/>
      <point x="43" y="42.5" type="line"/>
      <point x="43" y="42.5" type="line"/>
      <point x="43" y="42.5"/>
      <point x="43" y="42.5"/>
      <point x="43" y="42.5" type="qcurve"/>
      <point x="43" y="42.5" type="line"/>
      <point x="43" y="42.5" type="line"/>
      <point x="20" y="42.5" type="line"/>
      <point x="20" y="40.5" type="line"/>
      <point x="20" y="40.5" type="line"/>
      <point x="20.0" y="31.5"/>
      <point x="32.0" y="20.0"/>
      <point x="41" y="20.0" type="qcurve"/>
      <point x="41" y="20.0" type="line"/>
    </contour>
    <contour>
      <point x="58" y="80.0" type="line"/>
      <point x="58" y="57.5" type="line"/>
      <point x="58" y="57.5" type="line"/>
      <point x="58" y="57.5" type="line"/>
      <point x="58" y="57.5"/>
      <point x="58" y="57.5"/>
      <point x="58" y="57.5" type="qcurve"/>
      <point x="58" y="57.5" type="line"/>
      <point x="58" y="57.5" type="line"/>
      <point x="80" y="57.5" type="line"/>
      <point x="80" y="59.5" type="line"/>
      <point x="80" y="59.5" type="line"/>
      <point x="80.0" y="68.5"/>
      <point x="69.0" y="80.0"/>
      <point x="60" y="80.0" type="qcurve" smooth="yes"/>
      <point x="60" y="80.0" type="line"/>
    </contour>
    <contour>
      <point x="58" y="20.0" type="line"/>
      <point x="60" y="20.0" type="line"/>
      <point x="60" y="20.0" type="line"/>
      <point x="69.0" y="20.0"/>
      <point x="80.0" y="31.5"/>
      <point x="80" y="40.5" type="qcurve"/>
      <point x="80" y="40.5" type="line"/>
      <point x="80" y="42.5" type="line"/>
      <point x="58" y="42.5" type="line"/>
      <point x="58" y="42.5" type="line"/>
      <point x="58" y="42.5" type="line"/>
      <point x="58" y="42.5"/>
      <point x="58" y="42.5"/>
      <point x="58" y="42.5" type="qcurve"/>
      <point x="58" y="42.5" type="line"/>
      <point x="58" y="42.5" type="line"/>
    </contour>
    <contour>
      <point x="43" y="80.0" type="line"/>
      <point x="41" y="80.0" type="line"/>
      <point x="41" y="80.0" type="line" smooth="yes"/>
      <point x="32.0" y="80.0"/>
      <point x="20.0" y="68.5"/>
      <point x="20" y="59.5" type="qcurve"/>
      <point x="20" y="59.5" type="line"/>
      <point x="20" y="57.5" type="line"/>
      <point x="43" y="57.5" type="line"/>
      <point x="43" y="57.5" type="line"/>
      <point x="43" y="57.5" type="line"/>
      <point x="43" y="57.5"/>
      <point x="43" y="57.5"/>
      <point x="43" y="57.5" type="qcurve"/>
      <point x="43" y="57.5" type="line"/>
      <point x="43" y="57.5" type="line"/>
    </contour>
  </outline>
</glyph>
<glyph name="Instance@OpenLineCircle-Book" format="2">
  <advance width="100"/>
  <outline>
    <contour>
      <point x="40" y="10.0" type="line"/>
      <point x="40" y="26.0" type="line"/>
      <point x="40" y="26.0" type="line"/>
      <point x="40" y="26.0" type="line" smooth="yes"/>
      <point x="34.0" y="26.0"/>
      <point x="26.0" y="34.0"/>
      <point x="26" y="40.0" type="qcurve"/>
      <point x="26" y="40.0" type="line"/>
      <point x="26" y="40.0" type="line"/>
      <point x="10" y="40.0" type="line"/>
      <point x="10" y="38.0" type="line"/>
      <point x="10" y="38.0" type="line"/>
      <point x="10.0" y="26.0"/>
      <point x="26.0" y="10.0"/>
      <point x="38" y="10.0" type="qcurve"/>
      <point x="38" y="10.0" type="line"/>
    </contour>
    <contour>
      <point x="60" y="90.0" type="line"/>
      <point x="60" y="74.0" type="line"/>
      <point x="60" y="74.0" type="line"/>
      <point x="60" y="74.0" type="line"/>
      <point x="66.0" y="74.0"/>
      <point x="74.0" y="66.0"/>
      <point x="74" y="60.0" type="qcurve"/>
      <point x="74" y="60.0" type="line"/>
      <point x="74" y="60.0" type="line"/>
      <point x="90" y="60.0" type="line"/>
      <point x="90" y="62.0" type="line"/>
      <point x="90" y="62.0" type="line"/>
      <point x="90.0" y="74.0"/>
      <point x="74.0" y="90.0"/>
      <point x="62" y="90.0" type="qcurve" smooth="yes"/>
      <point x="62" y="90.0" type="line"/>
    </contour>
    <contour>
      <point x="60" y="10.0" type="line"/>
      <point x="62" y="10.0" type="line"/>
      <point x="62" y="10.0" type="line"/>
      <point x="74.0" y="10.0"/>
      <point x="90.0" y="26.0"/>
      <point x="90" y="38.0" type="qcurve"/>
      <point x="90" y="38.0" type="line"/>
      <point x="90" y="40.0" type="line"/>
      <point x="74" y="40.0" type="line"/>
      <point x="74" y="40.0" type="line"/>
      <point x="74" y="40.0" type="line"/>
      <point x="74.0" y="34.0"/>
      <point x="66.0" y="26.0"/>
      <point x="60" y="26.0" type="qcurve" smooth="yes"/>
      <point x="60" y="26.0" type="line"/>
      <point x="60" y="26.0" type="line"/>
    </contour>
    <contour>
      <point x="40" y="90.0" type="line"/>
      <point x="38" y="90.0" type="line"/>
      <point x="38" y="90.0" type="line" smooth="yes"/>
      <point x="26.0" y="90.0"/>
      <point x="10.0" y="74.0"/>
      <point x="10" y="62.0" type="qcurve"/>
      <point x="10" y="62.0" type="line"/>
      <point x="10" y="60.0" type="line"/>
      <point x="26" y="60.0" type="line"/>
      <point x="26" y="60.0" type="line"/>
      <point x="26" y="60.0" type="line"/>
      <point x="26.0" y="66.0"/>
      <point x="34.0" y="74.0"/>
      <point x="40" y="74.0" type="qcurve"/>
      <point x="40" y="74.0" type="line"/>
      <point x="40" y="74.0" type="line"/>
    </contour>
  </outline>
</glyph>
<glyph name="Instance@OpenLineSquare-Bold" format="2">
  <advance width="100"/>
  <outline>
    <contour>
      <point x="130" y="130" type="line"/>
      <point x="130" y="70" type="line"/>
      <point x="114" y="70" type="line"/>
      <point x="114" y="114" type="line"/>
      <point x="70" y="114" type="line"/>
      <point x="70" y="130" type="line"/>
    </contour>
    <contour>
      <point x="-14" y="114" type="line"/>
      <point x="-14" y="70" type="line"/>
      <point x="-30" y="70" type="line"/>
      <point x="-30" y="130" type="line"/>
      <point x="30" y="130" type="line"/>
      <point x="30" y="114" type="line"/>
    </contour>
    <contour>
      <point x="30" y="-14" type="line"/>
      <point x="30" y="-30" type="line"/>
      <point x="-30" y="-30" type="line"/>
      <point x="-30" y="30" type="line"/>
      <point x="-14" y="30" type="line"/>
      <point x="-14" y="-14" type="line"/>
    </contour>
    <contour>
      <point x="130" y="30" type="line"/>
      <point x="130" y="-30" type="line"/>
      <point x="70" y="-30" type="line"/>
      <point x="70" y="-14" type="line"/>
      <point x="114" y="-14" type="line"/>
      <point x="114" y="30" type="line"/>
    </contour>
  </outline>
</glyph>
<glyph name="Instance@OpenLineSquare-Book" format="2">
  <advance width="100"/>
  <outline>
    <contour>
      <point x="90" y="90" type="line"/>
      <point x="90" y="60" type="line"/>
      <point x="74" y="60" type="line"/>
      <point x="74" y="74" type="line"/>
      <point x="60" y="74" type="line"/>
      <point x="60" y="90" type="line"/>
    </contour>
    <contour>
      <point x="26" y="74" type="line"/>
      <point x="26" y="60" type="line"/>
      <point x="10" y="60" type="line"/>
      <point x="10" y="90" type="line"/>
      <point x="40" y="90" type="line"/>
      <point x="40" y="74" type="line"/>
    </contour>
    <contour>
      <point x="40" y="26" type="line"/>
      <point x="40" y="10" type="line"/>
      <point x="10" y="10" type="line"/>
      <point x="10" y="40" type="line"/>
      <point x="26" y="40" type="line"/>
      <point x="26" y="26" type="line"/>
    </contour>
    <contour>
      <point x="90" y="40" type="line"/>
      <point x="90" y="10" type="line"/>
      <point x="60" y="10" type="line"/>
      <point x="60" y="26" type="line"/>
      <point x="74" y="26" type="line"/>
      <point x="74" y="40" type="line"/>
    </contour>
  </outline>
</glyph>
<glyph name="Instance@OpenLineSquare-Regular" format="2">
  <advance width="100"/>
  <outline>
    <contour>
      <point x="100" y="100" type="line"/>
      <point x="100" y="63" type="line"/>
      <point x="84" y="63" type="line"/>
      <point x="84" y="84" type="line"/>
      <point x="63" y="84" type="line"/>
      <point x="63" y="100" type="line"/>
    </contour>
    <contour>
      <point x="16" y="84" type="line"/>
      <point x="16" y="63" type="line"/>
      <point x="0" y="63" type="line"/>
      <point x="0" y="100" type="line"/>
      <point x="38" y="100" type="line"/>
      <point x="38" y="84" type="line"/>
    </contour>
    <contour>
      <point x="38" y="16" type="line"/>
      <point x="38" y="0" type="line"/>
      <point x="0" y="0" type="line"/>
      <point x="0" y="38" type="line"/>
      <point x="16" y="38" type="line"/>
      <point x="16" y="16" type="line"/>
    </contour>
    <contour>
      <point x="100" y="38" type="line"/>
      <point x="100" y="0" type="line"/>
      <point x="63" y="0" type="line"/>
      <point x="63" y="16" type="line"/>
      <point x="84" y="16" type="line"/>
      <point x="84" y="38" type="line"/>
    </contour>
  </outline>
</glyph>
<glyph name="Instance@Plus-Bold" format="2">
  <advance width="100"/>
  <outline>
    <contour>
      <point x="80" y="20" type="line"/>
      <point x="80" y="-30" type="line"/>
      <point x="20" y="-30" type="line"/>
      <point x="20" y="20" type="line"/>
      <point x="-30" y="20" type="line"/>
      <point x="-30" y="80" type="line"/>
      <point x="20" y="80" type="line"/>
      <point x="20" y="130" type="line"/>
      <point x="80" y="130" type="line"/>
      <point x="80" y="80" type="line"/>
      <point x="130" y="80" type="line"/>
      <point x="130" y="20" type="line"/>
    </contour>
  </outline>
</glyph>
<glyph name="Instance@Plus-Book" format="2">
  <advance width="100"/>
  <outline>
    <contour>
      <point x="53" y="47" type="line"/>
      <point x="53" y="10" type="line"/>
      <point x="47" y="10" type="line"/>
      <point x="47" y="47" type="line"/>
      <point x="10" y="47" type="line"/>
      <point x="10" y="53" type="line"/>
      <point x="47" y="53" type="line"/>
      <point x="47" y="90" type="line"/>
      <point x="53" y="90" type="line"/>
      <point x="53" y="53" type="line"/>
      <point x="90" y="53" type="line"/>
      <point x="90" y="47" type="line"/>
    </contour>
  </outline>
</glyph>
<glyph name="Instance@Plus-Semibold" format="2">
  <advance width="100"/>
  <outline>
    <contour>
      <point x="63" y="37" type="line"/>
      <point x="63" y="-8" type="line"/>
      <point x="37" y="-8" type="line"/>
      <point x="37" y="37" type="line"/>
      <point x="-8" y="37" type="line"/>
      <point x="-8" y="63" type="line"/>
      <point x="37" y="63" type="line"/>
      <point x="37" y="108" type="line"/>
      <point x="63" y="108" type="line"/>
      <point x="63" y="63" type="line"/>
      <point x="108" y="63" type="line"/>
      <point x="108" y="37" type="line"/>
    </contour>
  </outline>
</glyph>
<glyph name="Instance@Square-Black" format="2">
  <advance width="100"/>
  <outline>
    <contour>
      <point x="150" y="150" type="line"/>
      <point x="150" y="-50" type="line"/>
      <point x="-50" y="-50" type="line"/>
      <point x="-50" y="150" type="line"/>
    </contour>
  </outline>
</glyph>
<glyph name="Instance@Square-Book" format="2">
  <advance width="100"/>
  <outline>
    <contour>
      <point x="90" y="90" type="line"/>
      <point x="90" y="10" type="line"/>
      <point x="10" y="10" type="line"/>
      <point x="10" y="90" type="line"/>
    </contour>
  </outline>
</glyph>
<glyph name="Instance@Square-Semibold" format="2">
  <advance width="100"/>
  <outline>
    <contour>
      <point x="108" y="108" type="line"/>
      <point x="108" y="-8" type="line"/>
      <point x="-8" y="-8" type="line"/>
      <point x="-8" y="108" type="line"/>
    </contour>
  </outline>
</glyph>
<glyph name="Instance@Square-Thin" format="2">
  <advance width="100"/>
  <outline>
    <contour>
      <point x="80" y="80" type="line"/>
      <point x="80" y="20" type="line"/>
      <point x="20" y="20" type="line"/>
      <point x="20" y="80" type="line"/>
    </contour>
  </outline>
</glyph>
<glyph name="InstanceItalic@Circle-Regular" format="2">
  <advance width="100"/>
  <outline>
    <contour>
      <point x="50" y="0.0" type="line"/>
      <point x="50" y="50.0" type="line"/>
      <point x="50" y="50.0" type="line"/>
      <point x="50" y="50.0" type="line"/>
      <point x="50" y="50.0"/>
      <point x="50" y="50.0"/>
      <point x="50" y="50.0" type="qcurve"/>
      <point x="50" y="50.0" type="line"/>
      <point x="50" y="50.0" type="line"/>
      <point x="0" y="50.0" type="line"/>
      <point x="0" y="48.0" type="line"/>
      <point x="0" y="48.0" type="line"/>
      <point x="0.0" y="27.0"/>
      <point x="27.0" y="0.0"/>
      <point x="48" y="0.0" type="qcurve"/>
      <point x="48" y="0.0" type="line"/>
    </contour>
    <contour>
      <point x="50" y="100.0" type="line"/>
      <point x="50" y="50.0" type="line"/>
      <point x="50" y="50.0" type="line"/>
      <point x="50" y="50.0" type="line"/>
      <point x="50" y="50.0"/>
      <point x="50" y="50.0"/>
      <point x="50" y="50.0" type="qcurve"/>
      <point x="50" y="50.0" type="line"/>
      <point x="50" y="50.0" type="line"/>
      <point x="100" y="50.0" type="line"/>
      <point x="100" y="52.0" type="line"/>
      <point x="100" y="52.0" type="line"/>
      <point x="100.0" y="73.0"/>
      <point x="73.0" y="100.0"/>
      <point x="52" y="100.0" type="qcurve" smooth="yes"/>
      <point x="52" y="100.0" type="line"/>
    </contour>
    <contour>
      <point x="50" y="0.0" type="line"/>
      <point x="52" y="0.0" type="line"/>
      <point x="52" y="0.0" type="line"/>
      <point x="73.0" y="0.0"/>
      <point x="100.0" y="27.0"/>
      <point x="100" y="48.0" type="qcurve"/>
      <point x="100" y="48.0" type="line"/>
      <point x="100" y="50.0" type="line"/>
      <point x="50" y="50.0" type="line"/>
      <point x="50" y="50.0" type="line"/>
      <point x="50" y="50.0" type="line"/>
      <point x="50" y="50.0"/>
      <point x="50" y="50.0"/>
      <point x="50" y="50.0" type="qcurve"/>
      <point x="50" y="50.0" type="line"/>
      <point x="50" y="50.0" type="line"/>
    </contour>
    <contour>
      <point x="50" y="100.0" type="line"/>
      <point x="48" y="100.0" type="line"/>
      <point x="48" y="100.0" type="line" smooth="yes"/>
      <point x="27.0" y="100.0"/>
      <point x="0.0" y="73.0"/>
      <point x="0" y="52.0" type="qcurve"/>
      <point x="0" y="52.0" type="line"/>
      <point x="0" y="50.0" type="line"/>
      <point x="50" y="50.0" type="line"/>
      <point x="50" y="50.0" type="line"/>
      <point x="50" y="50.0" type="line"/>
      <point x="50" y="50.0"/>
      <point x="50" y="50.0"/>
      <point x="50" y="50.0" type="qcurve"/>
      <point x="50" y="50.0" type="line"/>
      <point x="50" y="50.0" type="line"/>
    </contour>
  </outline>
</glyph>
<glyph name="InstanceItalic@Circle-Thin" format="2">
  <advance width="100"/>
  <outline>
    <contour>
      <point x="50" y="20.0" type="line"/>
      <point x="50" y="50.0" type="line"/>
      <point x="50" y="50.0" type="line"/>
      <point x="50" y="50.0" type="line"/>
      <point x="50" y="50.0"/>
      <point x="50" y="50.0"/>
      <point x="50" y="50.0" type="qcurve"/>
      <point x="50" y="50.0" type="line"/>
      <point x="50" y="50.0" type="line"/>
      <point x="20" y="50.0" type="line"/>
      <point x="20" y="48.0" type="line"/>
      <point x="20" y="48.0" type="line"/>
      <point x="20.0" y="36.0"/>
      <point x="36.0" y="20.0"/>
      <point x="48" y="20.0" type="qcurve"/>
      <point x="48" y="20.0" type="line"/>
    </contour>
    <contour>
      <point x="50" y="80.0" type="line"/>
      <point x="50" y="50.0" type="line"/>
      <point x="50" y="50.0" type="line"/>
      <point x="50" y="50.0" type="line"/>
      <point x="50" y="50.0"/>
      <point x="50" y="50.0"/>
      <point x="50" y="50.0" type="qcurve"/>
      <point x="50" y="50.0" type="line"/>
      <point x="50" y="50.0" type="line"/>
      <point x="80" y="50.0" type="line"/>
      <point x="80" y="52.0" type="line"/>
      <point x="80" y="52.0" type="line"/>
      <point x="80.0" y="64.0"/>
      <point x="64.0" y="80.0"/>
      <point x="52" y="80.0" type="qcurve" smooth="yes"/>
      <point x="52" y="80.0" type="line"/>
    </contour>
    <contour>
      <point x="50" y="20.0" type="line"/>
      <point x="52" y="20.0" type="line"/>
      <point x="52" y="20.0" type="line"/>
      <point x="64.0" y="20.0"/>
      <point x="80.0" y="36.0"/>
      <point x="80" y="48.0" type="qcurve"/>
      <point x="80" y="48.0" type="line"/>
      <point x="80" y="50.0" type="line"/>
      <point x="50" y="50.0" type="line"/>
      <point x="50" y="50.0" type="line"/>
      <point x="50" y="50.0" type="line"/>
      <point x="50" y="50.0"/>
      <point x="50" y="50.0"/>
      <point x="50" y="50.0" type="qcurve"/>
      <point x="50" y="50.0" type="line"/>
      <point x="50" y="50.0" type="line"/>
    </contour>
    <contour>
      <point x="50" y="80.0" type="line"/>
      <point x="48" y="80.0" type="line"/>
      <point x="48" y="80.0" type="line" smooth="yes"/>
      <point x="36.0" y="80.0"/>
      <point x="20.0" y="64.0"/>
      <point x="20" y="52.0" type="qcurve"/>
      <point x="20" y="52.0" type="line"/>
      <point x="20" y="50.0" type="line"/>
      <point x="50" y="50.0" type="line"/>
      <point x="50" y="50.0" type="line"/>
      <point x="50" y="50.0" type="line"/>
      <point x="50" y="50.0"/>
      <point x="50" y="50.0"/>
      <point x="50" y="50.0" type="qcurve"/>
      <point x="50" y="50.0" type="line"/>
      <point x="50" y="50.0" type="line"/>
    </contour>
  </outline>
</glyph>
<glyph name="InstanceItalic@LineCircle-Black" format="2">
  <advance width="100"/>
  <outline>
    <contour>
      <point x="50" y="-50.0" type="line"/>
      <point x="50" y="-34.0" type="line"/>
      <point x="50" y="-34.0" type="line"/>
      <point x="50" y="-34.0" type="line" smooth="yes"/>
      <point x="13.0" y="-34.0"/>
      <point x="-34.0" y="13.0"/>
      <point x="-34" y="50.0" type="qcurve"/>
      <point x="-34" y="50.0" type="line"/>
      <point x="-34" y="50.0" type="line"/>
      <point x="-50" y="50.0" type="line"/>
      <point x="-50" y="48.0" type="line"/>
      <point x="-50" y="48.0" type="line"/>
      <point x="-50.0" y="5.0"/>
      <point x="5.0" y="-50.0"/>
      <point x="48" y="-50.0" type="qcurve"/>
      <point x="48" y="-50.0" type="line"/>
    </contour>
    <contour>
      <point x="50" y="150.0" type="line"/>
      <point x="50" y="134.0" type="line"/>
      <point x="50" y="134.0" type="line"/>
      <point x="50" y="134.0" type="line"/>
      <point x="87.0" y="134.0"/>
      <point x="134.0" y="87.0"/>
      <point x="134" y="50.0" type="qcurve"/>
      <point x="134" y="50.0" type="line"/>
      <point x="134" y="50.0" type="line"/>
      <point x="150" y="50.0" type="line"/>
      <point x="150" y="52.0" type="line"/>
      <point x="150" y="52.0" type="line"/>
      <point x="150.0" y="95.0"/>
      <point x="95.0" y="150.0"/>
      <point x="52" y="150.0" type="qcurve" smooth="yes"/>
      <point x="52" y="150.0" type="line"/>
    </contour>
    <contour>
      <point x="50" y="-50.0" type="line"/>
      <point x="52" y="-50.0" type="line"/>
      <point x="52" y="-50.0" type="line"/>
      <point x="95.0" y="-50.0"/>
      <point x="150.0" y="5.0"/>
      <point x="150" y="48.0" type="qcurve"/>
      <point x="150" y="48.0" type="line"/>
      <point x="150" y="50.0" type="line"/>
      <point x="134" y="50.0" type="line"/>
      <point x="134" y="50.0" type="line"/>
      <point x="134" y="50.0" type="line"/>
      <point x="134.0" y="13.0"/>
      <point x="87.0" y="-34.0"/>
      <point x="50" y="-34.0" type="qcurve" smooth="yes"/>
      <point x="50" y="-34.0" type="line"/>
      <point x="50" y="-34.0" type="line"/>
    </contour>
    <contour>
      <point x="50" y="150.0" type="line"/>
      <point x="48" y="150.0" type="line"/>
      <point x="48" y="150.0" type="line" smooth="yes"/>
      <point x="5.0" y="150.0"/>
      <point x="-50.0" y="95.0"/>
      <point x="-50" y="52.0" type="qcurve"/>
      <point x="-50" y="52.0" type="line"/>
      <point x="-50" y="50.0" type="line"/>
      <point x="-34" y="50.0" type="line"/>
      <point x="-34" y="50.0" type="line"/>
      <point x="-34" y="50.0" type="line"/>
      <point x="-34.0" y="87.0"/>
      <point x="13.0" y="134.0"/>
      <point x="50" y="134.0" type="qcurve"/>
      <point x="50" y="134.0" type="line"/>
      <point x="50" y="134.0" type="line"/>
    </contour>
  </outline>
</glyph>
<glyph name="InstanceItalic@LineCircle-Bold" format="2">
  <advance width="100"/>
  <outline>
    <contour>
      <point x="50" y="-30.0" type="line"/>
      <point x="50" y="-14.0" type="line"/>
      <point x="50" y="-14.0" type="line"/>
      <point x="50" y="-14.0" type="line" smooth="yes"/>
      <point x="22.0" y="-14.0"/>
      <point x="-14.0" y="22.0"/>
      <point x="-14" y="50.0" type="qcurve"/>
      <point x="-14" y="50.0" type="line"/>
      <point x="-14" y="50.0" type="line"/>
      <point x="-30" y="50.0" type="line"/>
      <point x="-30" y="48.0" type="line"/>
      <point x="-30" y="48.0" type="line"/>
      <point x="-30.0" y="14.0"/>
      <point x="14.0" y="-30.0"/>
      <point x="48" y="-30.0" type="qcurve"/>
      <point x="48" y="-30.0" type="line"/>
    </contour>
    <contour>
      <point x="50" y="130.0" type="line"/>
      <point x="50" y="114.0" type="line"/>
      <point x="50" y="114.0" type="line"/>
      <point x="50" y="114.0" type="line"/>
      <point x="78.0" y="114.0"/>
      <point x="114.0" y="78.0"/>
      <point x="114" y="50.0" type="qcurve"/>
      <point x="114" y="50.0" type="line"/>
      <point x="114" y="50.0" type="line"/>
      <point x="130" y="50.0" type="line"/>
      <point x="130" y="52.0" type="line"/>
      <point x="130" y="52.0" type="line"/>
      <point x="130.0" y="86.0"/>
      <point x="86.0" y="130.0"/>
      <point x="52" y="130.0" type="qcurve" smooth="yes"/>
      <point x="52" y="130.0" type="line"/>
    </contour>
    <contour>
      <point x="50" y="-30.0" type="line"/>
      <point x="52" y="-30.0" type="line"/>
      <point x="52" y="-30.0" type="line"/>
      <point x="86.0" y="-30.0"/>
      <point x="130.0" y="14.0"/>
      <point x="130" y="48.0" type="qcurve"/>
      <point x="130" y="48.0" type="line"/>
      <point x="130" y="50.0" type="line"/>
      <point x="114" y="50.0" type="line"/>
      <point x="114" y="50.0" type="line"/>
      <point x="114" y="50.0" type="line"/>
      <point x="114.0" y="22.0"/>
      <point x="78.0" y="-14.0"/>
      <point x="50" y="-14.0" type="qcurve" smooth="yes"/>
      <point x="50" y="-14.0" type="line"/>
      <point x="50" y="-14.0" type="line"/>
    </contour>
    <contour>
      <point x="50" y="130.0" type="line"/>
      <point x="48" y="130.0" type="line"/>
      <point x="48" y="130.0" type="line" smooth="yes"/>
      <point x="14.0" y="130.0"/>
      <point x="-30.0" y="86.0"/>
      <point x="-30" y="52.0" type="qcurve"/>
      <point x="-30" y="52.0" type="line"/>
      <point x="-30" y="50.0" type="line"/>
      <point x="-14" y="50.0" type="line"/>
      <point x="-14" y="50.0" type="line"/>
      <point x="-14" y="50.0" type="line"/>
      <point x="-14.0" y="78.0"/>
      <point x="22.0" y="114.0"/>
      <point x="50" y="114.0" type="qcurve"/>
      <point x="50" y="114.0" type="line"/>
      <point x="50" y="114.0" type="line"/>
    </contour>
  </outline>
</glyph>
<glyph name="InstanceItalic@LineSquare-Black" format="2">
  <advance width="100"/>
  <outline>
    <contour>
      <point x="-50" y="52" type="line"/>
      <point x="-36" y="150" type="line"/>
      <point x="164" y="150" type="line"/>
      <point x="150" y="52" type="line"/>
      <point x="150" y="48" type="line"/>
      <point x="136" y="-50" type="line"/>
      <point x="-64" y="-50" type="line"/>
      <point x="-50" y="48" type="line"/>
    </contour>
    <contour>
      <point x="-22" y="134" type="line"/>
      <point x="-46" y="-34" type="line"/>
      <point x="122" y="-34" type="line"/>
      <point x="146" y="134" type="line"/>
    </contour>
  </outline>
</glyph>
<glyph name="InstanceItalic@OpenCircle-Bold" format="2">
  <advance width="100"/>
  <outline>
    <contour>
      <point x="133" y="72" type="qcurve"/>
      <point x="133" y="70" type="line"/>
      <point x="73" y="70" type="line"/>
      <point x="81" y="130" type="line"/>
      <point x="83" y="130" type="line"/>
      <point x="108" y="130"/>
      <point x="136" y="96"/>
    </contour>
    <contour>
      <point x="41" y="130" type="line"/>
      <point x="33" y="70" type="line"/>
      <point x="-27" y="70" type="line"/>
      <point x="-27" y="72" type="line"/>
      <point x="-24" y="96"/>
      <point x="15" y="130"/>
      <point x="39" y="130" type="qcurve"/>
    </contour>
    <contour>
      <point x="27" y="30" type="line"/>
      <point x="19" y="-30" type="line"/>
      <point x="17" y="-30" type="line"/>
      <point x="-8" y="-30"/>
      <point x="-36" y="4"/>
      <point x="-33" y="28" type="qcurve"/>
      <point x="-33" y="30" type="line"/>
    </contour>
    <contour>
      <point x="127" y="28" type="line"/>
      <point x="124" y="4"/>
      <point x="85" y="-30"/>
      <point x="61" y="-30" type="qcurve"/>
      <point x="59" y="-30" type="line"/>
      <point x="67" y="30" type="line"/>
      <point x="127" y="30" type="line"/>
    </contour>
  </outline>
</glyph>
<glyph name="InstanceItalic@OpenCircle-Book" format="2">
  <advance width="100"/>
  <outline>
    <contour>
      <point x="92" y="62" type="qcurve"/>
      <point x="91" y="60" type="line"/>
      <point x="61" y="60" type="line"/>
      <point x="66" y="90" type="line"/>
      <point x="68" y="90" type="line"/>
      <point x="79" y="90"/>
      <point x="93" y="74"/>
    </contour>
    <contour>
      <point x="46" y="90" type="line"/>
      <point x="41" y="60" type="line"/>
      <point x="11" y="60" type="line"/>
      <point x="12" y="62" type="line"/>
      <point x="13" y="74"/>
      <point x="32" y="90"/>
      <point x="44" y="90" type="qcurve"/>
    </contour>
    <contour>
      <point x="39" y="40" type="line"/>
      <point x="34" y="10" type="line"/>
      <point x="32" y="10" type="line"/>
      <point x="21" y="10"/>
      <point x="7" y="26"/>
      <point x="8" y="38" type="qcurve"/>
      <point x="9" y="40" type="line"/>
    </contour>
    <contour>
      <point x="88" y="38" type="line"/>
      <point x="87" y="26"/>
      <point x="68" y="10"/>
      <point x="56" y="10" type="qcurve"/>
      <point x="54" y="10" type="line"/>
      <point x="59" y="40" type="line"/>
      <point x="89" y="40" type="line"/>
    </contour>
  </outline>
</glyph>
<glyph name="InstanceItalic@OpenCircle-Regular" format="2">
  <advance width="100"/>
  <outline>
    <contour>
      <point x="102" y="65" type="qcurve"/>
      <point x="102" y="63" type="line"/>
      <point x="64" y="63" type="line"/>
      <point x="70" y="100" type="line"/>
      <point x="72" y="100" type="line"/>
      <point x="86" y="100"/>
      <point x="104" y="79"/>
    </contour>
    <contour>
      <point x="45" y="100" type="line"/>
      <point x="39" y="63" type="line"/>
      <point x="2" y="63" type="line"/>
      <point x="2" y="65" type="line"/>
      <point x="4" y="79"/>
      <point x="28" y="100"/>
      <point x="43" y="100" type="qcurve"/>
    </contour>
    <contour>
      <point x="36" y="38" type="line"/>
      <point x="31" y="0" type="line"/>
      <point x="29" y="0" type="line"/>
      <point x="14" y="0"/>
      <point x="-4" y="21"/>
      <point x="-2" y="36" type="qcurve"/>
      <point x="-2" y="38" type="line"/>
    </contour>
    <contour>
      <point x="98" y="36" type="line"/>
      <point x="96" y="21"/>
      <point x="72" y="0"/>
      <point x="58" y="0" type="qcurve"/>
      <point x="56" y="0" type="line"/>
      <point x="61" y="38" type="line"/>
      <point x="98" y="38" type="line"/>
    </contour>
  </outline>
</glyph>
<glyph name="InstanceItalic@OpenCircle-Thin" format="2">
  <advance width="100"/>
  <outline>
    <contour>
      <point x="81" y="60" type="qcurve"/>
      <point x="81" y="58" type="line"/>
      <point x="59" y="58" type="line"/>
      <point x="62" y="80" type="line"/>
      <point x="64" y="80" type="line"/>
      <point x="72" y="80"/>
      <point x="83" y="68"/>
    </contour>
    <contour>
      <point x="47" y="80" type="line"/>
      <point x="44" y="58" type="line"/>
      <point x="21" y="58" type="line"/>
      <point x="21" y="60" type="line"/>
      <point x="23" y="68"/>
      <point x="36" y="80"/>
      <point x="45" y="80" type="qcurve"/>
    </contour>
    <contour>
      <point x="41" y="43" type="line"/>
      <point x="38" y="20" type="line"/>
      <point x="36" y="20" type="line"/>
      <point x="28" y="20"/>
      <point x="17" y="32"/>
      <point x="19" y="41" type="qcurve"/>
      <point x="19" y="43" type="line"/>
    </contour>
    <contour>
      <point x="79" y="41" type="line"/>
      <point x="77" y="32"/>
      <point x="64" y="20"/>
      <point x="55" y="20" type="qcurve"/>
      <point x="53" y="20" type="line"/>
      <point x="56" y="43" type="line"/>
      <point x="79" y="43" type="line"/>
    </contour>
  </outline>
</glyph>
<glyph name="InstanceItalic@OpenLineCircle-Black" format="2">
  <advance width="100"/>
  <outline>
    <contour>
      <point x="154" y="77" type="qcurve"/>
      <point x="154" y="75" type="line"/>
      <point x="138" y="75" type="line"/>
      <point x="141" y="100"/>
      <point x="112" y="134"/>
      <point x="87" y="134" type="qcurve"/>
      <point x="89" y="150" type="line"/>
      <point x="91" y="150" type="line"/>
      <point x="122" y="150"/>
      <point x="158" y="108"/>
    </contour>
    <contour>
      <point x="37" y="134" type="line"/>
      <point x="12" y="134"/>
      <point x="-27" y="100"/>
      <point x="-31" y="75" type="qcurve"/>
      <point x="-47" y="75" type="line"/>
      <point x="-46" y="77" type="line"/>
      <point x="-42" y="108"/>
      <point x="6" y="150"/>
      <point x="37" y="150" type="qcurve"/>
      <point x="39" y="150" type="line"/>
    </contour>
    <contour>
      <point x="13" y="-34" type="qcurve"/>
      <point x="11" y="-50" type="line"/>
      <point x="9" y="-50" type="line"/>
      <point x="-22" y="-50"/>
      <point x="-58" y="-8"/>
      <point x="-54" y="23" type="qcurve"/>
      <point x="-54" y="25" type="line"/>
      <point x="-38" y="25" type="line"/>
      <point x="-41" y="0"/>
      <point x="-12" y="-34"/>
    </contour>
    <contour>
      <point x="146" y="23" type="line"/>
      <point x="142" y="-8"/>
      <point x="94" y="-50"/>
      <point x="63" y="-50" type="qcurve"/>
      <point x="61" y="-50" type="line"/>
      <point x="63" y="-34" type="line"/>
      <point x="88" y="-34"/>
      <point x="127" y="0"/>
      <point x="131" y="25" type="qcurve"/>
      <point x="147" y="25" type="line"/>
    </contour>
  </outline>
</glyph>
<glyph name="InstanceItalic@OpenLineCircle-Bold" format="2">
  <advance width="100"/>
  <outline>
    <contour>
      <point x="133" y="72" type="qcurve"/>
      <point x="133" y="70" type="line"/>
      <point x="117" y="70" type="line"/>
      <point x="119" y="88"/>
      <point x="97" y="114"/>
      <point x="79" y="114" type="qcurve"/>
      <point x="81" y="130" type="line"/>
      <point x="83" y="130" type="line"/>
      <point x="108" y="130"/>
      <point x="136" y="96"/>
    </contour>
    <contour>
      <point x="39" y="114" type="line"/>
      <point x="20" y="114"/>
      <point x="-9" y="88"/>
      <point x="-11" y="70" type="qcurve"/>
      <point x="-27" y="70" type="line"/>
      <point x="-27" y="72" type="line"/>
      <point x="-24" y="96"/>
      <point x="15" y="130"/>
      <point x="39" y="130" type="qcurve"/>
      <point x="41" y="130" type="line"/>
    </contour>
    <contour>
      <point x="21" y="-14" type="qcurve"/>
      <point x="19" y="-30" type="line"/>
      <point x="17" y="-30" type="line"/>
      <point x="-8" y="-30"/>
      <point x="-36" y="4"/>
      <point x="-33" y="28" type="qcurve"/>
      <point x="-33" y="30" type="line"/>
      <point x="-17" y="30" type="line"/>
      <point x="-19" y="12"/>
      <point x="3" y="-14"/>
    </contour>
    <contour>
      <point x="127" y="28" type="line"/>
      <point x="124" y="4"/>
      <point x="85" y="-30"/>
      <point x="61" y="-30" type="qcurve"/>
      <point x="59" y="-30" type="line"/>
      <point x="61" y="-14" type="line"/>
      <point x="80" y="-14"/>
      <point x="109" y="12"/>
      <point x="111" y="30" type="qcurve"/>
      <point x="127" y="30" type="line"/>
    </contour>
  </outline>
</glyph>
<glyph name="InstanceItalic@OpenLineCircle-Regular" format="2">
  <advance width="100"/>
  <outline>
    <contour>
      <point x="102" y="65" type="qcurve"/>
      <point x="102" y="63" type="line"/>
      <point x="86" y="63" type="line"/>
      <point x="87" y="72"/>
      <point x="76" y="84"/>
      <point x="67" y="84" type="qcurve"/>
      <point x="70" y="100" type="line"/>
      <point x="72" y="100" type="line"/>
      <point x="86" y="100"/>
      <point x="104" y="79"/>
    </contour>
    <contour>
      <point x="42" y="84" type="line"/>
      <point x="33" y="84"/>
      <point x="19" y="72"/>
      <point x="18" y="63" type="qcurve"/>
      <point x="2" y="63" type="line"/>
      <point x="2" y="65" type="line"/>
      <point x="4" y="79"/>
      <point x="28" y="100"/>
      <point x="43" y="100" type="qcurve"/>
      <point x="45" y="100" type="line"/>
    </contour>
    <contour>
      <point x="33" y="16" type="qcurve"/>
      <point x="31" y="0" type="line"/>
      <point x="29" y="0" type="line"/>
      <point x="14" y="0"/>
      <point x="-4" y="21"/>
      <point x="-2" y="36" type="qcurve"/>
      <point x="-2" y="38" type="line"/>
      <point x="14" y="38" type="line"/>
      <point x="13" y="28"/>
      <point x="24" y="16"/>
    </contour>
    <contour>
      <point x="98" y="36" type="line"/>
      <point x="96" y="21"/>
      <point x="72" y="0"/>
      <point x="58" y="0" type="qcurve"/>
      <point x="56" y="0" type="line"/>
      <point x="58" y="16" type="line"/>
      <point x="67" y="16"/>
      <point x="81" y="28"/>
      <point x="82" y="38" type="qcurve"/>
      <point x="98" y="38" type="line"/>
    </contour>
  </outline>
</glyph>
<glyph name="InstanceItalic@OpenLineCircle-Thin" format="2">
  <advance width="100"/>
  <outline>
    <contour>
      <point x="38" y="20.0" type="line"/>
      <point x="41" y="36.0" type="line"/>
      <point x="41" y="36.0" type="line"/>
      <point x="41" y="36.0" type="line"/>
      <point x="38" y="36.0"/>
      <point x="35" y="39.77"/>
      <point x="35" y="42.5" type="qcurve"/>
      <point x="35" y="42.5" type="line"/>
      <point x="35" y="42.5" type="line"/>
      <point x="19" y="42.5" type="line"/>
      <point x="19" y="40.5" type="line"/>
      <point x="19" y="40.5" type="line"/>
      <point x="17" y="31.89"/>
      <point x="28" y="20.0"/>
      <point x="36" y="20.0" type="qcurve"/>
      <point x="36" y="20.0" type="line"/>
    </contour>
    <contour>
      <point x="62" y="80.0" type="line"/>
      <point x="59" y="64.0" type="line"/>
      <point x="59" y="64.0" type="line"/>
      <point x="59" y="64.0" type="line"/>
      <point x="62" y="64.0"/>
      <point x="65" y="60.23"/>
      <point x="65" y="57.5" type="qcurve"/>
      <point x="65" y="57.5" type="line"/>
      <point x="65" y="57.5" type="line"/>
      <point x="81" y="57.5" type="line"/>
      <point x="81" y="59.5" type="line"/>
      <point x="81" y="59.5" type="line"/>
      <point x="83" y="68.11"/>
      <point x="72" y="80.0"/>
      <point x="64" y="80.0" type="qcurve"/>
      <point x="64" y="80.0" type="line"/>
    </contour>
    <contour>
      <point x="53" y="20.0" type="line"/>
      <point x="55" y="20.0" type="line"/>
      <point x="55" y="20.0" type="line"/>
      <point x="64" y="20.0"/>
      <point x="77" y="31.89"/>
      <point x="79" y="40.5" type="qcurve"/>
      <point x="79" y="40.5" type="line"/>
      <point x="79" y="42.5" type="line"/>
      <point x="63" y="42.5" type="line"/>
      <point x="63" y="42.5" type="line"/>
      <point x="63" y="42.5" type="line"/>
      <point x="63" y="39.77"/>
      <point x="58" y="36.0"/>
      <point x="56" y="36.0" type="qcurve"/>
      <point x="56" y="36.0" type="line"/>
      <point x="56" y="36.0" type="line"/>
    </contour>
    <contour>
      <point x="47" y="80.0" type="line"/>
      <point x="45" y="80.0" type="line"/>
      <point x="45" y="80.0" type="line"/>
      <point x="36" y="80.0"/>
      <point x="23" y="68.11"/>
      <point x="21" y="59.5" type="qcurve"/>
      <point x="21" y="59.5" type="line"/>
      <point x="21" y="57.5" type="line"/>
      <point x="37" y="57.5" type="line"/>
      <point x="37" y="57.5" type="line"/>
      <point x="37" y="57.5" type="line"/>
      <point x="37" y="60.23"/>
      <point x="42" y="64.0"/>
      <point x="44" y="64.0" type="qcurve"/>
      <point x="44" y="64.0" type="line"/>
      <point x="44" y="64.0" type="line"/>
    </contour>
  </outline>
</glyph>
<glyph name="InstanceItalic@OpenLineSquare-Black" format="2">
  <advance width="100"/>
  <outline>
    <contour>
      <point x="154" y="77" type="line"/>
      <point x="154" y="75" type="line"/>
      <point x="138" y="75" type="line"/>
      <point x="146" y="134" type="line"/>
      <point x="87" y="134" type="line"/>
      <point x="89" y="150" type="line"/>
      <point x="164" y="150" type="line"/>
    </contour>
    <contour>
      <point x="-22" y="134" type="line"/>
      <point x="-31" y="75" type="line"/>
      <point x="-47" y="75" type="line"/>
      <point x="-46" y="77" type="line"/>
      <point x="-36" y="150" type="line"/>
      <point x="39" y="150" type="line"/>
      <point x="37" y="134" type="line"/>
    </contour>
    <contour>
      <point x="13" y="-34" type="line"/>
      <point x="11" y="-50" type="line"/>
      <point x="-64" y="-50" type="line"/>
      <point x="-54" y="23" type="line"/>
      <point x="-54" y="25" type="line"/>
      <point x="-38" y="25" type="line"/>
      <point x="-46" y="-34" type="line"/>
    </contour>
    <contour>
      <point x="146" y="23" type="line"/>
      <point x="136" y="-50" type="line"/>
      <point x="61" y="-50" type="line"/>
      <point x="63" y="-34" type="line"/>
      <point x="122" y="-34" type="line"/>
      <point x="131" y="25" type="line"/>
      <point x="147" y="25" type="line"/>
    </contour>
  </outline>
</glyph>
<glyph name="InstanceItalic@OpenLineSquare-Regular" format="2">
  <advance width="100"/>
  <outline>
    <contour>
      <point x="102" y="65" type="line"/>
      <point x="102" y="63" type="line"/>
      <point x="86" y="63" type="line"/>
      <point x="89" y="84" type="line"/>
      <point x="67" y="84" type="line"/>
      <point x="70" y="100" type="line"/>
      <point x="107" y="100" type="line"/>
    </contour>
    <contour>
      <point x="21" y="84" type="line"/>
      <point x="18" y="63" type="line"/>
      <point x="2" y="63" type="line"/>
      <point x="2" y="65" type="line"/>
      <point x="7" y="100" type="line"/>
      <point x="45" y="100" type="line"/>
      <point x="42" y="84" type="line"/>
    </contour>
    <contour>
      <point x="33" y="16" type="line"/>
      <point x="31" y="0" type="line"/>
      <point x="-7" y="0" type="line"/>
      <point x="-2" y="36" type="line"/>
      <point x="-2" y="38" type="line"/>
      <point x="14" y="38" type="line"/>
      <point x="11" y="16" type="line"/>
    </contour>
    <contour>
      <point x="98" y="36" type="line"/>
      <point x="93" y="0" type="line"/>
      <point x="56" y="0" type="line"/>
      <point x="58" y="16" type="line"/>
      <point x="79" y="16" type="line"/>
      <point x="82" y="38" type="line"/>
      <point x="98" y="38" type="line"/>
    </contour>
  </outline>
</glyph>
<glyph name="InstanceItalic@OpenSquare-Book" format="2">
  <advance width="100"/>
  <outline>
    <contour>
      <point x="92" y="62" type="line"/>
      <point x="91" y="60" type="line"/>
      <point x="61" y="60" type="line"/>
      <point x="66" y="90" type="line"/>
      <point x="96" y="90" type="line"/>
    </contour>
    <contour>
      <point x="46" y="90" type="line"/>
      <point x="41" y="60" type="line"/>
      <point x="11" y="60" type="line"/>
      <point x="12" y="62" type="line"/>
      <point x="16" y="90" type="line"/>
    </contour>
    <contour>
      <point x="39" y="40" type="line"/>
      <point x="34" y="10" type="line"/>
      <point x="4" y="10" type="line"/>
      <point x="8" y="38" type="line"/>
      <point x="9" y="40" type="line"/>
    </contour>
    <contour>
      <point x="88" y="38" type="line"/>
      <point x="84" y="10" type="line"/>
      <point x="54" y="10" type="line"/>
      <point x="59" y="40" type="line"/>
      <point x="89" y="40" type="line"/>
    </contour>
  </outline>
</glyph>
<glyph name="InstanceItalic@OpenSquare-Regular" format="2">
  <advance width="100"/>
  <outline>
    <contour>
      <point x="102" y="65" type="line"/>
      <point x="102" y="63" type="line"/>
      <point x="64" y="63" type="line"/>
      <point x="70" y="100" type="line"/>
      <point x="107" y="100" type="line"/>
    </contour>
    <contour>
      <point x="45" y="100" type="line"/>
      <point x="39" y="63" type="line"/>
      <point x="2" y="63" type="line"/>
      <point x="2" y="65" type="line"/>
      <point x="7" y="100" type="line"/>
    </contour>
    <contour>
      <point x="36" y="38" type="line"/>
      <point x="31" y="0" type="line"/>
      <point x="-7" y="0" type="line"/>
      <point x="-2" y="36" type="line"/>
      <point x="-2" y="38" type="line"/>
    </contour>
    <contour>
      <point x="98" y="36" type="line"/>
      <point x="93" y="0" type="line"/>
      <point x="56" y="0" type="line"/>
      <point x="61" y="38" type="line"/>
      <point x="98" y="38" type="line"/>
    </contour>
  </outline>
</glyph>
<glyph name="InstanceItalic@OpenSquare-Semibold" format="2">
  <advance width="100"/>
  <outline>
    <contour>
      <point x="111" y="67" type="line"/>
      <point x="110" y="65" type="line"/>
      <point x="67" y="65" type="line"/>
      <point x="73" y="108" type="line"/>
      <point x="116" y="108" type="line"/>
    </contour>
    <contour>
      <point x="44" y="108" type="line"/>
      <point x="37" y="65" type="line"/>
      <point x="-6" y="65" type="line"/>
      <point x="-6" y="67" type="line"/>
      <point x="0" y="108" type="line"/>
    </contour>
    <contour>
      <point x="33" y="35" type="line"/>
      <point x="27" y="-8" type="line"/>
      <point x="-16" y="-8" type="line"/>
      <point x="-11" y="33" type="line"/>
      <point x="-10" y="35" type="line"/>
    </contour>
    <contour>
      <point x="106" y="33" type="line"/>
      <point x="100" y="-8" type="line"/>
      <point x="56" y="-8" type="line"/>
      <point x="63" y="35" type="line"/>
      <point x="106" y="35" type="line"/>
    </contour>
  </outline>
</glyph>
<glyph name="InstanceItalic@OpenSquare-Thin" format="2">
  <advance width="100"/>
  <outline>
    <contour>
      <point x="81" y="60" type="line"/>
      <point x="81" y="58" type="line"/>
      <point x="59" y="58" type="line"/>
      <point x="62" y="80" type="line"/>
      <point x="84" y="80" type="line"/>
    </contour>
    <contour>
      <point x="47" y="80" type="line"/>
      <point x="44" y="58" type="line"/>
      <point x="21" y="58" type="line"/>
      <point x="21" y="60" type="line"/>
      <point x="24" y="80" type="line"/>
    </contour>
    <contour>
      <point x="41" y="43" type="line"/>
      <point x="38" y="20" type="line"/>
      <point x="16" y="20" type="line"/>
      <point x="19" y="41" type="line"/>
      <point x="19" y="43" type="line"/>
    </contour>
    <contour>
      <point x="79" y="41" type="line"/>
      <point x="76" y="20" type="line"/>
      <point x="53" y="20" type="line"/>
      <point x="56" y="43" type="line"/>
      <point x="79" y="43" type="line"/>
    </contour>
  </outline>
</glyph>
<glyph name="InstanceItalic@Plus-Bold" format="2">
  <advance width="100"/>
  <outline>
    <contour>
      <point x="76" y="20" type="line"/>
      <point x="69" y="-30" type="line"/>
      <point x="8" y="-30" type="line"/>
      <point x="15" y="20" type="line"/>
      <point x="-34" y="20" type="line"/>
      <point x="-26" y="80" type="line"/>
      <point x="24" y="80" type="line"/>
      <point x="31" y="130" type="line"/>
      <point x="92" y="130" type="line"/>
      <point x="85" y="80" type="line"/>
      <point x="134" y="80" type="line"/>
      <point x="126" y="20" type="line"/>
    </contour>
  </outline>
</glyph>
<glyph name="InstanceItalic@Square-Black" format="2">
  <advance width="100"/>
  <outline>
    <contour>
      <point x="150" y="48" type="line"/>
      <point x="136" y="-50" type="line"/>
      <point x="-64" y="-50" type="line"/>
      <point x="-50" y="48" type="line"/>
      <point x="-50" y="52" type="line"/>
      <point x="-36" y="150" type="line"/>
      <point x="164" y="150" type="line"/>
      <point x="150" y="52" type="line"/>
    </contour>
  </outline>
</glyph>
<glyph name="InstanceItalic@Square-Bold" format="2">
  <advance width="100"/>
  <outline>
    <contour>
      <point x="130" y="48" type="line"/>
      <point x="119" y="-30" type="line"/>
      <point x="-41" y="-30" type="line"/>
      <point x="-30" y="48" type="line"/>
      <point x="-30" y="52" type="line"/>
      <point x="-19" y="130" type="line"/>
      <point x="141" y="130" type="line"/>
      <point x="130" y="52" type="line"/>
    </contour>
  </outline>
</glyph>
<glyph name="InstanceItalic@Square-Book" format="2">
  <advance width="100"/>
  <outline>
    <contour>
      <point x="90" y="48" type="line"/>
      <point x="84" y="10" type="line"/>
      <point x="4" y="10" type="line"/>
      <point x="10" y="48" type="line"/>
      <point x="10" y="52" type="line"/>
      <point x="16" y="90" type="line"/>
      <point x="96" y="90" type="line"/>
      <point x="90" y="52" type="line"/>
    </contour>
  </outline>
</glyph>
<glyph name="Instance@OpenLineCircle-Regular" format="1">
  <advance width="100"/>
  <outline>
    <contour>
      <point x="38" y="0.0" type="line"/>
      <point x="38" y="16.0" type="line"/>
      <point x="38" y="16.0" type="line"/>
      <point x="38" y="16.0" type="line" smooth="yes"/>
      <point x="28.0" y="16.0"/>
      <point x="16.0" y="28.5"/>
      <point x="16" y="37.5" type="qcurve"/>
      <point x="16" y="37.5" type="line"/>
      <point x="16" y="37.5" type="line"/>
      <point x="0" y="37.5" type="line"/>
      <point x="0" y="35.5" type="line"/>
      <point x="0" y="35.5" type="line"/>
      <point x="0.0" y="20.5"/>
      <point x="20.0" y="0.0"/>
      <point x="36" y="0.0" type="qcurve"/>
      <point x="36" y="0.0" type="line"/>
    </contour>
    <contour>
      <point x="63" y="100.0" type="line"/>
      <point x="63" y="84.0" type="line"/>
      <point x="63" y="84.0" type="line"/>
      <point x="63" y="84.0" type="line"/>
      <point x="72.0" y="84.0"/>
      <point x="84.0" y="71.5"/>
      <point x="84" y="62.5" type="qcurve"/>
      <point x="84" y="62.5" type="line"/>
      <point x="84" y="62.5" type="line"/>
      <point x="100" y="62.5" type="line"/>
      <point x="100" y="64.5" type="line"/>
      <point x="100" y="64.5" type="line"/>
      <point x="100.0" y="79.5"/>
      <point x="80.0" y="100.0"/>
      <point x="65" y="100.0" type="qcurve" smooth="yes"/>
      <point x="65" y="100.0" type="line"/>
    </contour>
    <contour>
      <point x="63" y="0.0" type="line"/>
      <point x="65" y="0.0" type="line"/>
      <point x="65" y="0.0" type="line"/>
      <point x="80.0" y="0.0"/>
      <point x="100.0" y="20.5"/>
      <point x="100" y="35.5" type="qcurve"/>
      <point x="100" y="35.5" type="line"/>
      <point x="100" y="37.5" type="line"/>
      <point x="84" y="37.5" type="line"/>
      <point x="84" y="37.5" type="line"/>
      <point x="84" y="37.5" type="line"/>
      <point x="84.0" y="28.5"/>
      <point x="72.0" y="16.0"/>
      <point x="63" y="16.0" type="qcurve" smooth="yes"/>
      <point x="63" y="16.0" type="line"/>
      <point x="63" y="16.0" type="line"/>
    </contour>
    <contour>
      <point x="38" y="100.0" type="line"/>
      <point x="36" y="100.0" type="line"/>
      <point x="36" y="100.0" type="line" smooth="yes"/>
      <point x="20.0" y="100.0"/>
      <point x="0.0" y="79.5"/>
      <point x="0" y="64.5" type="qcurve"/>
      <point x="0" y="64.5" type="line"/>
      <point x="0" y="62.5" type="line"/>
      <point x="16" y="62.5" type="line"/>
      <point x="16" y="62.5" type="line"/>
      <point x="16" y="62.5" type="line"/>
      <point x="16.0" y="71.5"/>
      <point x="28.0" y="84.0"/>
      <point x="38" y="84.0" type="qcurve"/>
      <point x="38" y="84.0" type="line"/>
      <point x="38" y="84.0" type="line"/>
    </contour>
  </outline>
</glyph>
<glyph name="Instance@OpenLineCircle-Thin" format="1">
  <advance width="100"/>
  <outline>
    <contour>
      <point x="43" y="20.0" type="line"/>
      <point x="43" y="36.0" type="line"/>
      <point x="43" y="36.0" type="line"/>
      <point x="43" y="36.0" type="line" smooth="yes"/>
      <point x="40.0" y="36.0"/>
      <point x="36.0" y="39.5"/>
      <point x="36" y="42.5" type="qcurve"/>
      <point x="36" y="42.5" type="line"/>
      <point x="36" y="42.5" type="line"/>
      <point x="20" y="42.5" type="line"/>
      <point x="20" y="40.5" type="line"/>
      <point x="20" y="40.5" type="line"/>
      <point x="20.0" y="31.5"/>
      <point x="32.0" y="20.0"/>
      <point x="41" y="20.0" type="qcurve"/>
      <point x="41" y="20.0" type="line"/>
    </contour>
    <contour>
      <point x="58" y="80.0" type="line"/>
      <point x="58" y="64.0" type="line"/>
      <point x="58" y="64.0" type="line"/>
      <point x="58" y="64.0" type="line"/>
      <point x="61.0" y="64.0"/>
      <point x="64.0" y="60.5"/>
      <point x="64" y="57.5" type="qcurve"/>
      <point x="64" y="57.5" type="line"/>
      <point x="64" y="57.5" type="line"/>
      <point x="80" y="57.5" type="line"/>
      <point x="80" y="59.5" type="line"/>
      <point x="80" y="59.5" type="line"/>
      <point x="80.0" y="68.5"/>
      <point x="69.0" y="80.0"/>
      <point x="60" y="80.0" type="qcurve" smooth="yes"/>
      <point x="60" y="80.0" type="line"/>
    </contour>
    <contour>
      <point x="58" y="20.0" type="line"/>
      <point x="60" y="20.0" type="line"/>
      <point x="60" y="20.0" type="line"/>
      <point x="69.0" y="20.0"/>
      <point x="80.0" y="31.5"/>
      <point x="80" y="40.5" type="qcurve"/>
      <point x="80" y="40.5" type="line"/>
      <point x="80" y="42.5" type="line"/>
      <point x="64" y="42.5" type="line"/>
      <point x="64" y="42.5" type="line"/>
      <point x="64" y="42.5" type="line"/>
      <point x="64.0" y="39.5"/>
      <point x="61.0" y="36.0"/>
      <point x="58" y="36.0" type="qcurve" smooth="yes"/>
      <point x="58" y="36.0" type="line"/>
      <point x="58" y="36.0" type="line"/>
    </contour>
    <contour>
      <point x="43" y="80.0" type="line"/>
      <point x="41" y="80.0" type="line"/>
      <point x="41" y="80.0" type="line" smooth="yes"/>
      <point x="32.0" y="80.0"/>
      <point x="20.0" y="68.5"/>
      <point x="20" y="59.5" type="qcurve"/>
      <point x="20" y="59.5" type="line"/>
      <point x="20" y="57.5" type="line"/>
      <point x="36" y="57.5" type="line"/>
      <point x="36" y="57.5" type="line"/>
      <point x="36" y="57.5" type="line"/>
      <point x="36.0" y="60.5"/>
      <point x="40.0" y="64.0"/>
      <point x="43" y="64.0" type="qcurve"/>
      <point x="43" y="64.0" type="line"/>
      <point x="43" y="64.0" type="line"/>
    </contour>
  </outline>
</glyph>
<glyph name="Instance@OpenSquare-Bold" format="1">
  <advance width="100"/>
  <outline>
    <contour>
      <point x="130" y="130" type="line"/>
      <point x="130" y="70" type="line"/>
      <point x="70" y="70" type="line"/>
      <point x="70" y="130" type="line"/>
    </contour>
    <contour>
      <point x="30" y="130" type="line"/>
      <point x="30" y="70" type="line"/>
      <point x="-30" y="70" type="line"/>
      <point x="-30" y="130" type="line"/>
    </contour>
    <contour>
      <point x="30" y="30" type="line"/>
      <point x="30" y="-30" type="line"/>
      <point x="-30" y="-30" type="line"/>
      <point x="-30" y="30" type="line"/>
    </contour>
    <contour>
      <point x="130" y="30" type="line"/>
      <point x="130" y="-30" type="line"/>
      <point x="70" y="-30" type="line"/>
      <point x="70" y="30" type="line"/>
    </contour>
  </outline>
</glyph>
<glyph name="Instance@Plus-Regular" format="1">
  <advance width="100"/>
  <outline>
    <contour>
      <point x="54" y="46" type="line"/>
      <point x="54" y="0" type="line"/>
      <point x="46" y="0" type="line"/>
      <point x="46" y="46" type="line"/>
      <point x="0" y="46" type="line"/>
      <point x="0" y="54" type="line"/>
      <point x="46" y="54" type="line"/>
      <point x="46" y="100" type="line"/>
      <point x="54" y="100" type="line"/>
      <point x="54" y="54" type="line"/>
      <point x="100" y="54" type="line"/>
      <point x="100" y="46" type="line"/>
    </contour>
  </outline>
</glyph>
<glyph name="Instance@Square-Bold" format="1">
  <advance width="100"/>
  <outline>
    <contour>
      <point x="130" y="130" type="line"/>
      <point x="130" y="-30" type="line"/>
      <point x="-30" y="-30" type="line"/>
      <point x="-30" y="130" type="line"/>
    </contour>
  </outline>
</glyph>
<glyph name="InstanceItalic@OpenCircle-Black" format="1">
  <advance width="100"/>
  <outline>
    <contour>
      <point x="154" y="77" type="qcurve"/>
      <point x="154" y="75" type="line"/>
      <point x="79" y="75" type="line"/>
      <point x="89" y="150" type="line"/>
      <point x="91" y="150" type="line"/>
      <point x="122" y="150"/>
      <point x="158" y="108"/>
    </contour>
    <contour>
      <point x="39" y="150" type="line"/>
      <point x="29" y="75" type="line"/>
      <point x="-47" y="75" type="line"/>
      <point x="-46" y="77" type="line"/>
      <point x="-42" y="108"/>
      <point x="6" y="150"/>
      <point x="37" y="150" type="qcurve"/>
    </contour>
    <contour>
      <point x="22" y="25" type="line"/>
      <point x="11" y="-50" type="line"/>
      <point x="9" y="-50" type="line"/>
      <point x="-22" y="-50"/>
      <point x="-58" y="-8"/>
      <point x="-54" y="23" type="qcurve"/>
      <point x="-54" y="25" type="line"/>
    </contour>
    <contour>
      <point x="146" y="23" type="line"/>
      <point x="142" y="-8"/>
      <point x="94" y="-50"/>
      <point x="63" y="-50" type="qcurve"/>
      <point x="61" y="-50" type="line"/>
      <point x="72" y="25" type="line"/>
      <point x="147" y="25" type="line"/>
    </contour>
  </outline>
</glyph>
<glyph name="InstanceItalic@OpenLineSquare-Bold" format="1">
  <advance width="100"/>
  <outline>
    <contour>
      <point x="133" y="72" type="line"/>
      <point x="133" y="70" type="line"/>
      <point x="117" y="70" type="line"/>
      <point x="123" y="114" type="line"/>
      <point x="79" y="114" type="line"/>
      <point x="81" y="130" type="line"/>
      <point x="141" y="130" type="line"/>
    </contour>
    <contour>
      <point x="-5" y="114" type="line"/>
      <point x="-11" y="70" type="line"/>
      <point x="-27" y="70" type="line"/>
      <point x="-27" y="72" type="line"/>
      <point x="-19" y="130" type="line"/>
      <point x="41" y="130" type="line"/>
      <point x="39" y="114" type="line"/>
    </contour>
    <contour>
      <point x="21" y="-14" type="line"/>
      <point x="19" y="-30" type="line"/>
      <point x="-41" y="-30" type="line"/>
      <point x="-33" y="28" type="line"/>
      <point x="-33" y="30" type="line"/>
      <point x="-17" y="30" type="line"/>
      <point x="-23" y="-14" type="line"/>
    </contour>
    <contour>
      <point x="127" y="28" type="line"/>
      <point x="119" y="-30" type="line"/>
      <point x="59" y="-30" type="line"/>
      <point x="61" y="-14" type="line"/>
      <point x="105" y="-14" type="line"/>
      <point x="111" y="30" type="line"/>
      <point x="127" y="30" type="line"/>
    </contour>
  </outline>
</glyph>
<glyph name="InstanceItalic@Plus-Thin" format="1">
  <advance width="100"/>
  <outline>
    <contour>
      <point x="52" y="48" type="line"/>
      <point x="48" y="20" type="line"/>
      <point x="43" y="20" type="line"/>
      <point x="47" y="48" type="line"/>
      <point x="20" y="48" type="line"/>
      <point x="20" y="52" type="line"/>
      <point x="48" y="52" type="line"/>
      <point x="52" y="80" type="line"/>
      <point x="57" y="80" type="line"/>
      <point x="53" y="52" type="line"/>
      <point x="80" y="52" type="line"/>
      <point x="80" y="48" type="line"/>
    </contour>
  </outline>
</glyph>
<glyph name="InstanceItalic@Square-Semibold" format="1">
  <advance width="100"/>
  <outline>
    <contour>
      <point x="108" y="48" type="line"/>
      <point x="100" y="-8" type="line"/>
      <point x="-16" y="-8" type="line"/>
      <point x="-8" y="48" type="line"/>
      <point x="-8" y="52" type="line"/>
      <point x="0" y="108" type="line"/>
      <point x="116" y="108" type="line"/>
      <point x="108" y="52" type="line"/>
    </contour>
  </outline>
</glyph>
<glyph name="Pix01@10" format="2">
  <advance width="100"/>
  <guideline x="50" y="133" angle="90" identifier="0TEQn04FOP"/>
  <guideline x="68" y="100" angle="0" identifier="j7AK2k8kV6"/>
  <guideline x="125" y="50" angle="0" identifier="VHhNmLRBqe"/>
  <outline>
    <contour>
      <point x="52" y="1" type="line"/>
      <point x="52" y="52" type="line"/>
      <point x="52" y="52" type="line"/>
      <point x="52" y="52"/>
      <point x="52" y="52"/>
      <point x="52" y="52" type="curve"/>
      <point x="52" y="52" type="line"/>
      <point x="1" y="52" type="line"/>
      <point x="0" y="51" type="line"/>
      <point x="0" y="50" type="line"/>
      <point x="0" y="21"/>
      <point x="21" y="0"/>
      <point x="50" y="0" type="curve"/>
      <point x="51" y="0" type="line"/>
    </contour>
    <contour>
      <point x="48" y="1" type="line"/>
      <point x="49" y="0" type="line"/>
      <point x="50" y="0" type="line"/>
      <point x="79" y="0"/>
      <point x="100" y="21"/>
      <point x="100" y="50" type="curve"/>
      <point x="100" y="51" type="line"/>
      <point x="99" y="52" type="line"/>
      <point x="48" y="52" type="line"/>
      <point x="48" y="52" type="line"/>
      <point x="48" y="52"/>
      <point x="48" y="52"/>
      <point x="48" y="52" type="curve"/>
      <point x="48" y="52" type="line"/>
    </contour>
    <contour>
      <point x="48" y="99.0" type="line"/>
      <point x="48" y="48.0" type="line"/>
      <point x="48" y="48.0" type="line"/>
      <point x="48" y="48"/>
      <point x="48" y="48"/>
      <point x="48" y="48.0" type="curve"/>
      <point x="48" y="48.0" type="line"/>
      <point x="99" y="48.0" type="line"/>
      <point x="100" y="49.0" type="line"/>
      <point x="100" y="50.0" type="line"/>
      <point x="100" y="79"/>
      <point x="79" y="100"/>
      <point x="50" y="100.0" type="curve"/>
      <point x="49" y="100.0" type="line"/>
    </contour>
    <contour>
      <point x="52" y="99" type="line"/>
      <point x="51" y="100" type="line"/>
      <point x="50" y="100" type="line"/>
      <point x="21" y="100"/>
      <point x="0" y="79"/>
      <point x="0" y="50" type="curve"/>
      <point x="0" y="49" type="line"/>
      <point x="1" y="48" type="line"/>
      <point x="52" y="48" type="line"/>
      <point x="52" y="48" type="line"/>
      <point x="52" y="48"/>
      <point x="52" y="48"/>
      <point x="52" y="48" type="curve"/>
      <point x="52" y="48" type="line"/>
    </contour>
  </outline>
</glyph>
<glyph name="Pix01@11_i" format="2">
  <advance width="100"/>
  <outline>
    <contour>
      <point x="-12" y="-50" type="line"/>
      <point x="-5" y="2" type="line"/>
      <point x="-5" y="2" type="line"/>
      <point x="-5.0" y="2.0"/>
      <point x="-5.0" y="2.0"/>
      <point x="-5" y="2" type="curve"/>
      <point x="-5" y="2" type="line"/>
      <point x="-57" y="2" type="line"/>
      <point x="-57" y="2" type="line"/>
      <point x="-57" y="2" type="line"/>
      <point x="-60.99999999999999" y="-29.0"/>
      <point x="-43.0" y="-50.0"/>
      <point x="-12" y="-50" type="curve"/>
      <point x="-12" y="-50" type="line"/>
    </contour>
    <contour>
      <point x="84" y="-50" type="line"/>
      <point x="84" y="-50" type="line"/>
      <point x="84" y="-50" type="line"/>
      <point x="115.00000000000001" y="-50.0"/>
      <point x="140.0" y="-29.0"/>
      <point x="144" y="2" type="curve"/>
      <point x="144" y="2" type="line"/>
      <point x="144" y="2" type="line"/>
      <point x="92" y="2" type="line"/>
      <point x="92" y="2" type="line"/>
      <point x="92.0" y="2.0"/>
      <point x="92.0" y="2.0"/>
      <point x="92" y="2" type="curve"/>
      <point x="92" y="2" type="line"/>
    </contour>
    <contour>
      <point x="112" y="150" type="line"/>
      <point x="105" y="98" type="line"/>
      <point x="105" y="98" type="line"/>
      <point x="105.0" y="98.0"/>
      <point x="105.0" y="98.0"/>
      <point x="105" y="98" type="curve"/>
      <point x="105" y="98" type="line"/>
      <point x="157" y="98" type="line"/>
      <point x="157" y="98" type="line"/>
      <point x="157" y="98" type="line"/>
      <point x="161.0" y="129.0"/>
      <point x="143.0" y="150.0"/>
      <point x="112" y="150" type="curve"/>
      <point x="112" y="150" type="line"/>
    </contour>
    <contour>
      <point x="16" y="150" type="line"/>
      <point x="16" y="150" type="line"/>
      <point x="16" y="150" type="line"/>
      <point x="-15.0" y="150.0"/>
      <point x="-39.00000000000001" y="129.0"/>
      <point x="-43" y="98" type="curve"/>
      <point x="-43" y="98" type="line"/>
      <point x="-43" y="98" type="line"/>
      <point x="9" y="98" type="line"/>
      <point x="9" y="98" type="line"/>
      <point x="9.0" y="98.0"/>
      <point x="9.0" y="98.0"/>
      <point x="9" y="98" type="curve"/>
      <point x="9" y="98" type="line"/>
    </contour>
  </outline>
</glyph>
<glyph name="Pix02@00_i" format="2">
  <advance width="100"/>
  <outline>
    <contour>
      <point x="48" y="38" type="line"/>
      <point x="49" y="42" type="line"/>
      <point x="49" y="42" type="line"/>
      <point x="43.64" y="42.0"/>
      <point x="40.66" y="44.64"/>
      <point x="42" y="50" type="curve"/>
      <point x="42" y="50" type="line"/>
      <point x="38" y="50" type="line"/>
      <point x="38" y="50" type="line"/>
      <point x="38" y="50" type="line"/>
      <point x="36.66" y="41.96"/>
      <point x="41.3" y="38.0"/>
      <point x="48" y="38" type="curve"/>
      <point x="48" y="38" type="line"/>
    </contour>
    <contour>
      <point x="48" y="38" type="line"/>
      <point x="48" y="38" type="line"/>
      <point x="48" y="38" type="line"/>
      <point x="54.7" y="38.0"/>
      <point x="60.66" y="41.96"/>
      <point x="62" y="50" type="curve"/>
      <point x="62" y="50" type="line"/>
      <point x="62" y="50" type="line"/>
      <point x="58" y="50" type="line"/>
      <point x="58" y="50" type="line"/>
      <point x="56.66" y="44.64"/>
      <point x="53.02" y="42.0"/>
      <point x="49" y="42" type="curve"/>
      <point x="49" y="42" type="line"/>
    </contour>
    <contour>
      <point x="52" y="62" type="line"/>
      <point x="51" y="58" type="line"/>
      <point x="51" y="58" type="line"/>
      <point x="56.36" y="58.0"/>
      <point x="59.34" y="55.36"/>
      <point x="58" y="50" type="curve"/>
      <point x="58" y="50" type="line"/>
      <point x="62" y="50" type="line"/>
      <point x="62" y="50" type="line"/>
      <point x="62" y="50" type="line"/>
      <point x="63.34" y="58.04"/>
      <point x="58.7" y="62.0"/>
      <point x="52" y="62" type="curve"/>
      <point x="52" y="62" type="line"/>
    </contour>
    <contour>
      <point x="52" y="62" type="line"/>
      <point x="52" y="62" type="line"/>
      <point x="52" y="62" type="line"/>
      <point x="45.3" y="62.0"/>
      <point x="39.34" y="58.04"/>
      <point x="38" y="50" type="curve"/>
      <point x="38" y="50" type="line"/>
      <point x="38" y="50" type="line"/>
      <point x="42" y="50" type="line"/>
      <point x="42" y="50" type="line"/>
      <point x="43.34" y="55.36"/>
      <point x="46.98" y="58.0"/>
      <point x="51" y="58" type="curve"/>
      <point x="51" y="58" type="line"/>
    </contour>
  </outline>
</glyph>
<glyph name="Pix02@01_i" format="2">
  <advance width="100"/>
  <outline>
    <contour>
      <point x="-7" y="-12" type="line"/>
      <point x="-6" y="-8" type="line"/>
      <point x="-6" y="-8" type="line"/>
      <point x="-12.0" y="-8.0"/>
      <point x="-15.999999999999998" y="-4.0"/>
      <point x="-15" y="2" type="curve"/>
      <point x="-15" y="2" type="line"/>
      <point x="-19" y="2" type="line"/>
      <point x="-19" y="2" type="line"/>
      <point x="-19" y="2" type="line"/>
      <point x="-20.0" y="-6.0"/>
      <point x="-15.0" y="-12.0"/>
      <point x="-7" y="-12" type="curve"/>
      <point x="-7" y="-12" type="line"/>
    </contour>
    <contour>
      <point x="89" y="-12" type="line"/>
      <point x="89" y="-12" type="line"/>
      <point x="89" y="-12" type="line"/>
      <point x="96.99999999999999" y="-12.0"/>
      <point x="103.99999999999999" y="-6.0"/>
      <point x="105" y="2" type="curve"/>
      <point x="105" y="2" type="line"/>
      <point x="105" y="2" type="line"/>
      <point x="101" y="2" type="line"/>
      <point x="101" y="2" type="line"/>
      <point x="99.99999999999999" y="-4.0"/>
      <point x="95.0" y="-8.0"/>
      <point x="90" y="-8" type="curve"/>
      <point x="90" y="-8" type="line"/>
    </contour>
    <contour>
      <point x="107" y="112" type="line"/>
      <point x="106" y="108" type="line"/>
      <point x="106" y="108" type="line"/>
      <point x="113.0" y="108.0"/>
      <point x="116.00000000000001" y="104.0"/>
      <point x="115" y="98" type="curve"/>
      <point x="115" y="98" type="line"/>
      <point x="119" y="98" type="line"/>
      <point x="119" y="98" type="line"/>
      <point x="119" y="98" type="line"/>
      <point x="120.00000000000001" y="105.99999999999999"/>
      <point x="114.99999999999999" y="112.0"/>
      <point x="107" y="112" type="curve"/>
      <point x="107" y="112" type="line"/>
    </contour>
    <contour>
      <point x="11" y="112" type="line"/>
      <point x="11" y="112" type="line"/>
      <point x="11" y="112" type="line"/>
      <point x="3.0" y="112.0"/>
      <point x="-4.0" y="105.99999999999999"/>
      <point x="-5" y="98" type="curve"/>
      <point x="-5" y="98" type="line"/>
      <point x="-5" y="98" type="line"/>
      <point x="-1" y="98" type="line"/>
      <point x="-1" y="98" type="line"/>
      <point x="0.0" y="104.0"/>
      <point x="5.0" y="108.0"/>
      <point x="10" y="108" type="curve"/>
      <point x="10" y="108" type="line"/>
    </contour>
  </outline>
</glyph>
<glyph name="Pix02@11" format="2">
  <advance width="100"/>
  <guideline x="50" y="133" angle="90" identifier="0TEQn04FOP"/>
  <guideline x="68" y="100" angle="0" identifier="j7AK2k8kV6"/>
  <guideline x="125" y="50" angle="0" identifier="VHhNmLRBqe"/>
  <outline>
    <contour>
      <point x="2" y="-52" type="line"/>
      <point x="2" y="-48" type="line"/>
      <point x="2" y="-48" type="line"/>
      <point x="-26" y="-48"/>
      <point x="-48" y="-26"/>
      <point x="-48" y="2" type="curve"/>
      <point x="-48" y="2" type="line"/>
      <point x="-52" y="2" type="line"/>
      <point x="-52" y="2" type="line"/>
      <point x="-52" y="2" type="line"/>
      <point x="-52" y="-27"/>
      <point x="-27" y="-52"/>
      <point x="2" y="-52" type="curve"/>
      <point x="2" y="-52" type="line"/>
    </contour>
    <contour>
      <point x="98" y="-52" type="line"/>
      <point x="98" y="-52" type="line"/>
      <point x="98" y="-52" type="line"/>
      <point x="127" y="-52"/>
      <point x="152" y="-27"/>
      <point x="152" y="2" type="curve"/>
      <point x="152" y="2" type="line"/>
      <point x="152" y="2" type="line"/>
      <point x="148" y="2" type="line"/>
      <point x="148" y="2" type="line"/>
      <point x="148" y="-26"/>
      <point x="126" y="-48"/>
      <point x="98" y="-48" type="curve"/>
      <point x="98" y="-48" type="line"/>
    </contour>
    <contour>
      <point x="98" y="152" type="line"/>
      <point x="98" y="148" type="line"/>
      <point x="98" y="148" type="line"/>
      <point x="126" y="148"/>
      <point x="148" y="126"/>
      <point x="148" y="98" type="curve"/>
      <point x="148" y="98" type="line"/>
      <point x="152" y="98" type="line"/>
      <point x="152" y="98" type="line"/>
      <point x="152" y="98" type="line"/>
      <point x="152" y="127"/>
      <point x="127" y="152"/>
      <point x="98" y="152" type="curve"/>
      <point x="98" y="152" type="line"/>
    </contour>
    <contour>
      <point x="2" y="152" type="line"/>
      <point x="2" y="152" type="line"/>
      <point x="2" y="152" type="line"/>
      <point x="-27" y="152"/>
      <point x="-52" y="127"/>
      <point x="-52" y="98" type="curve"/>
      <point x="-52" y="98" type="line"/>
      <point x="-52" y="98" type="line"/>
      <point x="-48" y="98" type="line"/>
      <point x="-48" y="98" type="line"/>
      <point x="-48" y="126"/>
      <point x="-26" y="148"/>
      <point x="2" y="148" type="curve"/>
      <point x="2" y="148" type="line"/>
    </contour>
  </outline>
</glyph>
<glyph name="Pix02@20_i" format="2">
  <advance width="100"/>
  <guideline x="50" y="133" angle="90" identifier="0TEQn04FOP"/>
  <guideline x="68" y="100" angle="0" identifier="j7AK2k8kV6"/>
  <guideline x="125" y="50" angle="0" identifier="VHhNmLRBqe"/>
  <outline>
    <contour>
      <point x="52" y="-52" type="line"/>
      <point x="52" y="-48" type="line"/>
      <point x="50" y="-48" type="line"/>
      <point x="-8" y="-48"/>
      <point x="-48" y="-8"/>
      <point x="-48" y="50" type="curve"/>
      <point x="-48" y="52" type="line"/>
      <point x="-52" y="52" type="line"/>
      <point x="-52" y="51" type="line"/>
      <point x="-52" y="50" type="line"/>
      <point x="-52" y="-10"/>
      <point x="-10" y="-52"/>
      <point x="50" y="-52" type="curve"/>
      <point x="51" y="-52" type="line"/>
    </contour>
    <contour>
      <point x="48" y="-52" type="line"/>
      <point x="49" y="-52" type="line"/>
      <point x="50" y="-52" type="line"/>
      <point x="110" y="-52"/>
      <point x="152" y="-10"/>
      <point x="152" y="50" type="curve"/>
      <point x="152" y="51" type="line"/>
      <point x="152" y="52" type="line"/>
      <point x="148" y="52" type="line"/>
      <point x="148" y="50" type="line"/>
      <point x="148" y="-8"/>
      <point x="108" y="-48"/>
      <point x="50" y="-48" type="curve"/>
      <point x="48" y="-48" type="line"/>
    </contour>
    <contour>
      <point x="48" y="152" type="line"/>
      <point x="48" y="148" type="line"/>
      <point x="50" y="148" type="line"/>
      <point x="108" y="148"/>
      <point x="148" y="108"/>
      <point x="148" y="50" type="curve"/>
      <point x="148" y="48" type="line"/>
      <point x="152" y="48" type="line"/>
      <point x="152" y="49" type="line"/>
      <point x="152" y="50" type="line"/>
      <point x="152" y="110"/>
      <point x="110" y="152"/>
      <point x="50" y="152" type="curve"/>
      <point x="49" y="152" type="line"/>
    </contour>
    <contour>
      <point x="52" y="152" type="line"/>
      <point x="51" y="152" type="line"/>
      <point x="50" y="152" type="line"/>
      <point x="-10" y="152"/>
      <point x="-52" y="110"/>
      <point x="-52" y="50" type="curve"/>
      <point x="-52" y="49" type="line"/>
      <point x="-52" y="48" type="line"/>
      <point x="-48" y="48" type="line"/>
      <point x="-48" y="50" type="line"/>
      <point x="-48" y="108"/>
      <point x="-8" y="148"/>
      <point x="50" y="148" type="curve"/>
      <point x="52" y="148" type="line"/>
    </contour>
  </outline>
</glyph>
<glyph name="Pix02@21_i" format="2">
  <advance width="100"/>
  <outline>
    <contour>
      <point x="-19" y="-102" type="line"/>
      <point x="-19" y="-98" type="line"/>
      <point x="-19" y="-98" type="line"/>
      <point x="-80" y="-98"/>
      <point x="-114" y="-57"/>
      <point x="-105" y="2" type="curve"/>
      <point x="-105" y="2" type="line"/>
      <point x="-109" y="2" type="line"/>
      <point x="-109" y="2" type="line"/>
      <point x="-109" y="2" type="line"/>
      <point x="-118" y="-60"/>
      <point x="-82" y="-102"/>
      <point x="-19" y="-102" type="curve"/>
      <point x="-19" y="-102" type="line"/>
    </contour>
    <contour>
      <point x="77" y="-102" type="line"/>
      <point x="77" y="-102" type="line"/>
      <point x="77" y="-102" type="line"/>
      <point x="138" y="-102"/>
      <point x="186" y="-60"/>
      <point x="195" y="2" type="curve"/>
      <point x="195" y="2" type="line"/>
      <point x="195" y="2" type="line"/>
      <point x="191" y="2" type="line"/>
      <point x="191" y="2" type="line"/>
      <point x="182" y="-57"/>
      <point x="135" y="-98"/>
      <point x="77" y="-98" type="curve"/>
      <point x="77" y="-98" type="line"/>
    </contour>
    <contour>
      <point x="119" y="202" type="line"/>
      <point x="119" y="198" type="line"/>
      <point x="119" y="198" type="line"/>
      <point x="180" y="198"/>
      <point x="214" y="157"/>
      <point x="205" y="98" type="curve"/>
      <point x="205" y="98" type="line"/>
      <point x="209" y="98" type="line"/>
      <point x="209" y="98" type="line"/>
      <point x="209" y="98" type="line"/>
      <point x="218" y="160"/>
      <point x="182" y="202"/>
      <point x="119" y="202" type="curve"/>
      <point x="119" y="202" type="line"/>
    </contour>
    <contour>
      <point x="23" y="202" type="line"/>
      <point x="23" y="202" type="line"/>
      <point x="23" y="202" type="line"/>
      <point x="-38" y="202"/>
      <point x="-86" y="160"/>
      <point x="-95" y="98" type="curve"/>
      <point x="-95" y="98" type="line"/>
      <point x="-95" y="98" type="line"/>
      <point x="-91" y="98" type="line"/>
      <point x="-91" y="98" type="line"/>
      <point x="-82" y="157"/>
      <point x="-35" y="198"/>
      <point x="23" y="198" type="curve"/>
      <point x="23" y="198" type="line"/>
    </contour>
  </outline>
</glyph>
<glyph name="Pix03@01_i" format="2">
  <advance width="100"/>
  <outline>
    <contour>
      <point x="-7" y="-12" type="line"/>
      <point x="-6" y="-8" type="line"/>
      <point x="-6" y="-8" type="line"/>
      <point x="-11.36" y="-8.0"/>
      <point x="-16.34" y="-4.7"/>
      <point x="-15" y="2" type="curve"/>
      <point x="-15" y="2" type="line"/>
      <point x="-19" y="2" type="line"/>
      <point x="-21" y="-12" type="line"/>
      <point x="-21" y="-12" type="line"/>
      <point x="-21.0" y="-12.0"/>
      <point x="-21.0" y="-12.0"/>
      <point x="-21" y="-12" type="curve"/>
      <point x="-21" y="-12" type="line"/>
    </contour>
    <contour>
      <point x="89" y="-12" type="line"/>
      <point x="103" y="-12" type="line"/>
      <point x="103" y="-12" type="line"/>
      <point x="103.0" y="-12.0"/>
      <point x="103.0" y="-12.0"/>
      <point x="103" y="-12" type="curve"/>
      <point x="103" y="-12" type="line"/>
      <point x="105" y="2" type="line"/>
      <point x="101" y="2" type="line"/>
      <point x="101" y="2" type="line"/>
      <point x="99.66" y="-3.3600000000000003"/>
      <point x="94.02" y="-8.0"/>
      <point x="90" y="-8" type="curve"/>
      <point x="90" y="-8" type="line"/>
    </contour>
    <contour>
      <point x="107" y="112" type="line"/>
      <point x="106" y="108" type="line"/>
      <point x="106" y="108" type="line"/>
      <point x="111.36" y="108.0"/>
      <point x="115.0" y="104.7"/>
      <point x="115" y="98" type="curve"/>
      <point x="115" y="98" type="line"/>
      <point x="119" y="98" type="line"/>
      <point x="121" y="112" type="line"/>
      <point x="121" y="112" type="line"/>
      <point x="121.0" y="112.0"/>
      <point x="121.0" y="112.0"/>
      <point x="121" y="112" type="curve"/>
      <point x="121" y="112" type="line"/>
    </contour>
    <contour>
      <point x="11" y="112" type="line"/>
      <point x="-3" y="112" type="line"/>
      <point x="-3" y="112" type="line"/>
      <point x="-3.0" y="112.0"/>
      <point x="-3.0" y="112.0"/>
      <point x="-3" y="112" type="curve"/>
      <point x="-3" y="112" type="line"/>
      <point x="-5" y="98" type="line"/>
      <point x="-1" y="98" type="line"/>
      <point x="-1" y="98" type="line"/>
      <point x="0.3400000000000001" y="103.36"/>
      <point x="4.64" y="108.0"/>
      <point x="10" y="108" type="curve"/>
      <point x="10" y="108" type="line"/>
    </contour>
  </outline>
</glyph>
<glyph name="Pix03@10" format="2">
  <advance width="100"/>
  <guideline x="50" y="133" angle="90" identifier="0TEQn04FOP"/>
  <guideline x="68" y="100" angle="0" identifier="j7AK2k8kV6"/>
  <guideline x="125" y="50" angle="0" identifier="VHhNmLRBqe"/>
  <outline>
    <contour>
      <point x="52" y="-2" type="line"/>
      <point x="52" y="2" type="line"/>
      <point x="50" y="2" type="line"/>
      <point x="21" y="2"/>
      <point x="2" y="21"/>
      <point x="2" y="50" type="curve"/>
      <point x="2" y="52" type="line"/>
      <point x="-2" y="52" type="line"/>
      <point x="-2" y="-2" type="line"/>
      <point x="-2" y="-2" type="line"/>
      <point x="-2" y="-2"/>
      <point x="-2" y="-2"/>
      <point x="-2" y="-2" type="curve"/>
      <point x="-2" y="-2" type="line"/>
    </contour>
    <contour>
      <point x="48" y="-2" type="line"/>
      <point x="102" y="-2" type="line"/>
      <point x="102" y="-2" type="line"/>
      <point x="102" y="-2"/>
      <point x="103" y="-2"/>
      <point x="102" y="-2" type="curve"/>
      <point x="102" y="-2" type="line"/>
      <point x="102" y="52" type="line"/>
      <point x="98" y="52" type="line"/>
      <point x="98" y="50" type="line"/>
      <point x="98" y="21"/>
      <point x="79" y="2"/>
      <point x="50" y="2" type="curve"/>
      <point x="48" y="2" type="line"/>
    </contour>
    <contour>
      <point x="48" y="102" type="line"/>
      <point x="48" y="98" type="line"/>
      <point x="50" y="98" type="line"/>
      <point x="79" y="98"/>
      <point x="98" y="79"/>
      <point x="98" y="50" type="curve"/>
      <point x="98" y="48" type="line"/>
      <point x="102" y="48" type="line"/>
      <point x="102" y="102" type="line"/>
      <point x="102" y="102" type="line"/>
      <point x="102" y="102"/>
      <point x="102" y="102"/>
      <point x="102" y="102" type="curve"/>
      <point x="102" y="102" type="line"/>
    </contour>
    <contour>
      <point x="52" y="102" type="line"/>
      <point x="-2" y="102" type="line"/>
      <point x="-2" y="102" type="line"/>
      <point x="-2" y="102"/>
      <point x="-2" y="102"/>
      <point x="-2" y="102" type="curve"/>
      <point x="-2" y="102" type="line"/>
      <point x="-2" y="48" type="line"/>
      <point x="2" y="48" type="line"/>
      <point x="2" y="50" type="line"/>
      <point x="2" y="79"/>
      <point x="21" y="98"/>
      <point x="50" y="98" type="curve"/>
      <point x="52" y="98" type="line"/>
    </contour>
  </outline>
</glyph>
<glyph name="Pix03@20_i" format="2">
  <advance width="100"/>
  <outline>
    <contour>
      <point x="36" y="-52" type="line"/>
      <point x="36" y="-48" type="line"/>
      <point x="36" y="-48" type="line"/>
      <point x="-22.96" y="-48.0"/>
      <point x="-56.04" y="-7.6200000000000045"/>
      <point x="-48" y="50" type="curve"/>
      <point x="-48" y="50" type="line"/>
      <point x="-52" y="50" type="line"/>
      <point x="-66" y="-52" type="line"/>
      <point x="-66" y="-52" type="line"/>
      <point x="-66.0" y="-52.0"/>
      <point x="-66.0" y="-52.0"/>
      <point x="-66" y="-52" type="curve"/>
      <point x="-66" y="-52" type="line"/>
    </contour>
    <contour>
      <point x="36" y="-52" type="line"/>
      <point x="138" y="-52" type="line"/>
      <point x="138" y="-52" type="line"/>
      <point x="138.0" y="-52.0"/>
      <point x="138.0" y="-52.0"/>
      <point x="138" y="-52" type="curve"/>
      <point x="138" y="-52" type="line"/>
      <point x="152" y="50" type="line"/>
      <point x="148" y="50" type="line"/>
      <point x="148" y="50" type="line"/>
      <point x="139.96" y="-7.6200000000000045"/>
      <point x="93.62" y="-48.0"/>
      <point x="36" y="-48" type="curve"/>
      <point x="36" y="-48" type="line"/>
    </contour>
    <contour>
      <point x="64" y="152" type="line"/>
      <point x="64" y="148" type="line"/>
      <point x="64" y="148" type="line"/>
      <point x="122.96000000000001" y="148.0"/>
      <point x="156.04" y="107.62"/>
      <point x="148" y="50" type="curve"/>
      <point x="148" y="50" type="line"/>
      <point x="152" y="50" type="line"/>
      <point x="166" y="152" type="line"/>
      <point x="166" y="152" type="line"/>
      <point x="166.0" y="152.0"/>
      <point x="166.0" y="152.0"/>
      <point x="166" y="152" type="curve"/>
      <point x="166" y="152" type="line"/>
    </contour>
    <contour>
      <point x="64" y="152" type="line"/>
      <point x="-38" y="152" type="line"/>
      <point x="-38" y="152" type="line"/>
      <point x="-38.0" y="152.0"/>
      <point x="-38.0" y="152.0"/>
      <point x="-38" y="152" type="curve"/>
      <point x="-38" y="152" type="line"/>
      <point x="-52" y="50" type="line"/>
      <point x="-48" y="50" type="line"/>
      <point x="-48" y="50" type="line"/>
      <point x="-39.96" y="107.62"/>
      <point x="6.3799999999999955" y="148.0"/>
      <point x="64" y="148" type="curve"/>
      <point x="64" y="148" type="line"/>
    </contour>
  </outline>
</glyph>
<glyph name="Pix04@00_i" format="2">
  <advance width="100"/>
  <outline>
    <contour>
      <point x="48" y="38" type="line"/>
      <point x="48" y="38" type="line"/>
      <point x="48" y="38" type="line"/>
      <point x="41.3" y="46.04"/>
      <point x="44.7" y="41.96"/>
      <point x="38" y="50" type="curve"/>
      <point x="38" y="50" type="line"/>
      <point x="38" y="50" type="line"/>
      <point x="36" y="38" type="line"/>
      <point x="36" y="38" type="line"/>
      <point x="36.0" y="38.0"/>
      <point x="36.0" y="38.0"/>
      <point x="36" y="38" type="curve"/>
      <point x="36" y="38" type="line"/>
    </contour>
    <contour>
      <point x="48" y="38" type="line"/>
      <point x="60" y="38" type="line"/>
      <point x="60" y="38" type="line"/>
      <point x="60.0" y="38.0"/>
      <point x="60.0" y="38.0"/>
      <point x="60" y="38" type="curve"/>
      <point x="60" y="38" type="line"/>
      <point x="62" y="50" type="line"/>
      <point x="62" y="50" type="line"/>
      <point x="62" y="50" type="line"/>
      <point x="52.62" y="41.96"/>
      <point x="57.38" y="46.04"/>
      <point x="48" y="38" type="curve"/>
      <point x="48" y="38" type="line"/>
    </contour>
    <contour>
      <point x="52" y="62" type="line"/>
      <point x="52" y="62" type="line"/>
      <point x="52" y="62" type="line"/>
      <point x="58.7" y="53.96"/>
      <point x="55.3" y="58.04"/>
      <point x="62" y="50" type="curve"/>
      <point x="62" y="50" type="line"/>
      <point x="62" y="50" type="line"/>
      <point x="64" y="62" type="line"/>
      <point x="64" y="62" type="line"/>
      <point x="64.0" y="62.0"/>
      <point x="64.0" y="62.0"/>
      <point x="64" y="62" type="curve"/>
      <point x="64" y="62" type="line"/>
    </contour>
    <contour>
      <point x="52" y="62" type="line"/>
      <point x="40" y="62" type="line"/>
      <point x="40" y="62" type="line"/>
      <point x="40.0" y="62.0"/>
      <point x="40.0" y="62.0"/>
      <point x="40" y="62" type="curve"/>
      <point x="40" y="62" type="line"/>
      <point x="38" y="50" type="line"/>
      <point x="38" y="50" type="line"/>
      <point x="38" y="50" type="line"/>
      <point x="47.38" y="58.04"/>
      <point x="42.62" y="53.96"/>
      <point x="52" y="62" type="curve"/>
      <point x="52" y="62" type="line"/>
    </contour>
  </outline>
</glyph>
<glyph name="Pix04@01_i" format="2">
  <advance width="100"/>
  <outline>
    <contour>
      <point x="-6" y="-12" type="line"/>
      <point x="-6" y="-12" type="line"/>
      <point x="-6" y="-12" type="line"/>
      <point x="-12.0" y="-5.0"/>
      <point x="-13.0" y="-5.0"/>
      <point x="-19" y="2" type="curve"/>
      <point x="-19" y="2" type="line"/>
      <point x="-19" y="2" type="line"/>
      <point x="-20" y="-12" type="line"/>
      <point x="-20" y="-12" type="line"/>
      <point x="-20.0" y="-12.0"/>
      <point x="-20.0" y="-12.0"/>
      <point x="-20" y="-12" type="curve"/>
      <point x="-20" y="-12" type="line"/>
    </contour>
    <contour>
      <point x="90" y="-12" type="line"/>
      <point x="104" y="-12" type="line"/>
      <point x="104" y="-12" type="line"/>
      <point x="104.0" y="-12.0"/>
      <point x="104.0" y="-12.0"/>
      <point x="104" y="-12" type="curve"/>
      <point x="104" y="-12" type="line"/>
      <point x="105" y="2" type="line"/>
      <point x="105" y="2" type="line"/>
      <point x="105" y="2" type="line"/>
      <point x="97.00000000000001" y="-5.0"/>
      <point x="97.99999999999999" y="-5.0"/>
      <point x="90" y="-12" type="curve"/>
      <point x="90" y="-12" type="line"/>
    </contour>
    <contour>
      <point x="106" y="112" type="line"/>
      <point x="106" y="112" type="line"/>
      <point x="106" y="112" type="line"/>
      <point x="112.0" y="106.0"/>
      <point x="112.0" y="105.99999999999999"/>
      <point x="119" y="98" type="curve"/>
      <point x="119" y="98" type="line"/>
      <point x="119" y="98" type="line"/>
      <point x="120" y="112" type="line"/>
      <point x="120" y="112" type="line"/>
      <point x="120.0" y="112.0"/>
      <point x="120.0" y="112.0"/>
      <point x="120" y="112" type="curve"/>
      <point x="120" y="112" type="line"/>
    </contour>
    <contour>
      <point x="10" y="112" type="line"/>
      <point x="-4" y="112" type="line"/>
      <point x="-4" y="112" type="line"/>
      <point x="-4.0" y="112.0"/>
      <point x="-4.0" y="112.0"/>
      <point x="-4" y="112" type="curve"/>
      <point x="-4" y="112" type="line"/>
      <point x="-5" y="98" type="line"/>
      <point x="-5" y="98" type="line"/>
      <point x="-5" y="98" type="line"/>
      <point x="2.0" y="105.0"/>
      <point x="2.0" y="105.0"/>
      <point x="10" y="112" type="curve"/>
      <point x="10" y="112" type="line"/>
    </contour>
  </outline>
</glyph>
<glyph name="Pix05@00_i" format="2">
  <advance width="100"/>
  <outline>
    <contour>
      <point x="48" y="38" type="line"/>
      <point x="48" y="42" type="line"/>
      <point x="41" y="42" type="line"/>
      <point x="41.0" y="42.0"/>
      <point x="41.0" y="42.0"/>
      <point x="41" y="42" type="curve"/>
      <point x="42" y="50" type="line"/>
      <point x="38" y="50" type="line"/>
      <point x="37" y="38" type="line"/>
      <point x="37" y="38" type="line"/>
      <point x="37.0" y="38.0"/>
      <point x="37.0" y="38.0"/>
      <point x="37" y="38" type="curve"/>
      <point x="37" y="38" type="line"/>
    </contour>
    <contour>
      <point x="48" y="38" type="line"/>
      <point x="61" y="38" type="line"/>
      <point x="61" y="38" type="line"/>
      <point x="61.0" y="38.0"/>
      <point x="61.0" y="38.0"/>
      <point x="61" y="38" type="curve"/>
      <point x="61" y="38" type="line"/>
      <point x="62" y="50" type="line"/>
      <point x="58" y="50" type="line"/>
      <point x="57" y="42" type="line"/>
      <point x="57.0" y="42.0"/>
      <point x="57.0" y="42.0"/>
      <point x="57" y="42" type="curve"/>
      <point x="48" y="42" type="line"/>
    </contour>
    <contour>
      <point x="52" y="62" type="line"/>
      <point x="52" y="58" type="line"/>
      <point x="59" y="58" type="line"/>
      <point x="59.0" y="58.0"/>
      <point x="59.0" y="58.0"/>
      <point x="59" y="58" type="curve"/>
      <point x="58" y="50" type="line"/>
      <point x="62" y="50" type="line"/>
      <point x="63" y="62" type="line"/>
      <point x="63" y="62" type="line"/>
      <point x="63.0" y="62.0"/>
      <point x="63.0" y="62.0"/>
      <point x="63" y="62" type="curve"/>
      <point x="63" y="62" type="line"/>
    </contour>
    <contour>
      <point x="52" y="62" type="line"/>
      <point x="39" y="62" type="line"/>
      <point x="39" y="62" type="line"/>
      <point x="39.0" y="62.0"/>
      <point x="39.0" y="62.0"/>
      <point x="39" y="62" type="curve"/>
      <point x="39" y="62" type="line"/>
      <point x="38" y="50" type="line"/>
      <point x="42" y="50" type="line"/>
      <point x="43" y="58" type="line"/>
      <point x="43.0" y="58.0"/>
      <point x="43.0" y="58.0"/>
      <point x="43" y="58" type="curve"/>
      <point x="52" y="58" type="line"/>
    </contour>
  </outline>
</glyph>
<glyph name="Pix05@10_i" format="2">
  <advance width="100"/>
  <outline>
    <contour>
      <point x="45" y="-2" type="line"/>
      <point x="45" y="2" type="line"/>
      <point x="-5" y="2" type="line"/>
      <point x="-5.0" y="2.0"/>
      <point x="-5.0" y="2.0"/>
      <point x="-5" y="2" type="curve"/>
      <point x="2" y="50" type="line"/>
      <point x="-2" y="50" type="line"/>
      <point x="-9" y="-2" type="line"/>
      <point x="-9" y="-2" type="line"/>
      <point x="-9.0" y="-2.0"/>
      <point x="-9.0" y="-2.0"/>
      <point x="-9" y="-2" type="curve"/>
      <point x="-9" y="-2" type="line"/>
    </contour>
    <contour>
      <point x="41" y="-2" type="line"/>
      <point x="95" y="-2" type="line"/>
      <point x="95" y="-2" type="line"/>
      <point x="95.0" y="-2.0"/>
      <point x="95.0" y="-2.0"/>
      <point x="95" y="-2" type="curve"/>
      <point x="95" y="-2" type="line"/>
      <point x="102" y="50" type="line"/>
      <point x="98" y="50" type="line"/>
      <point x="91" y="2" type="line"/>
      <point x="91.0" y="2.0"/>
      <point x="91.0" y="2.0"/>
      <point x="91" y="2" type="curve"/>
      <point x="41" y="2" type="line"/>
    </contour>
    <contour>
      <point x="55" y="102" type="line"/>
      <point x="55" y="98" type="line"/>
      <point x="105" y="98" type="line"/>
      <point x="105.0" y="98.0"/>
      <point x="105.0" y="98.0"/>
      <point x="105" y="98" type="curve"/>
      <point x="98" y="50" type="line"/>
      <point x="102" y="50" type="line"/>
      <point x="109" y="102" type="line"/>
      <point x="109" y="102" type="line"/>
      <point x="109.0" y="102.0"/>
      <point x="109.0" y="102.0"/>
      <point x="109" y="102" type="curve"/>
      <point x="109" y="102" type="line"/>
    </contour>
    <contour>
      <point x="59" y="102" type="line"/>
      <point x="5" y="102" type="line"/>
      <point x="5" y="102" type="line"/>
      <point x="5.0" y="102.0"/>
      <point x="5.0" y="102.0"/>
      <point x="5" y="102" type="curve"/>
      <point x="5" y="102" type="line"/>
      <point x="-2" y="50" type="line"/>
      <point x="2" y="50" type="line"/>
      <point x="9" y="98" type="line"/>
      <point x="9.0" y="98.0"/>
      <point x="9.0" y="98.0"/>
      <point x="9" y="98" type="curve"/>
      <point x="59" y="98" type="line"/>
    </contour>
  </outline>
</glyph>
<glyph name="Pix05@11_i" format="2">
  <advance width="100"/>
  <outline>
    <contour>
      <point x="-12" y="-52" type="line"/>
      <point x="-12" y="-48" type="line"/>
      <point x="-62" y="-48" type="line"/>
      <point x="-62.0" y="-48.0"/>
      <point x="-62.0" y="-48.0"/>
      <point x="-62" y="-48" type="curve"/>
      <point x="-55" y="2" type="line"/>
      <point x="-59" y="2" type="line"/>
      <point x="-66" y="-52" type="line"/>
      <point x="-66" y="-52" type="line"/>
      <point x="-66.0" y="-52.0"/>
      <point x="-66.0" y="-52.0"/>
      <point x="-66" y="-52" type="curve"/>
      <point x="-66" y="-52" type="line"/>
    </contour>
    <contour>
      <point x="84" y="-52" type="line"/>
      <point x="138" y="-52" type="line"/>
      <point x="138" y="-52" type="line"/>
      <point x="138.0" y="-52.0"/>
      <point x="138.0" y="-52.0"/>
      <point x="138" y="-52" type="curve"/>
      <point x="138" y="-52" type="line"/>
      <point x="145" y="2" type="line"/>
      <point x="141" y="2" type="line"/>
      <point x="134" y="-48" type="line"/>
      <point x="134.0" y="-48.0"/>
      <point x="134.0" y="-48.0"/>
      <point x="134" y="-48" type="curve"/>
      <point x="84" y="-48" type="line"/>
    </contour>
    <contour>
      <point x="112" y="152" type="line"/>
      <point x="112" y="148" type="line"/>
      <point x="162" y="148" type="line"/>
      <point x="162.0" y="148.0"/>
      <point x="162.0" y="148.0"/>
      <point x="162" y="148" type="curve"/>
      <point x="155" y="98" type="line"/>
      <point x="159" y="98" type="line"/>
      <point x="166" y="152" type="line"/>
      <point x="166" y="152" type="line"/>
      <point x="166.0" y="152.0"/>
      <point x="166.0" y="152.0"/>
      <point x="166" y="152" type="curve"/>
      <point x="166" y="152" type="line"/>
    </contour>
    <contour>
      <point x="16" y="152" type="line"/>
      <point x="-38" y="152" type="line"/>
      <point x="-38" y="152" type="line"/>
      <point x="-38.0" y="152.0"/>
      <point x="-38.0" y="152.0"/>
      <point x="-38" y="152" type="curve"/>
      <point x="-38" y="152" type="line"/>
      <point x="-45" y="98" type="line"/>
      <point x="-41" y="98" type="line"/>
      <point x="-34" y="148" type="line"/>
      <point x="-34.0" y="148.0"/>
      <point x="-34.0" y="148.0"/>
      <point x="-34" y="148" type="curve"/>
      <point x="16" y="148" type="line"/>
    </contour>
  </outline>
</glyph>
<glyph name="Pix07@21_i" format="2">
  <advance width="100"/>
  <outline>
    <contour>
      <point x="-19.0" y="-102.0" type="line"/>
      <point x="-5.0" y="2.0" type="line"/>
      <point x="-5.0" y="2.0" type="line"/>
      <point x="-5.0" y="2.0"/>
      <point x="-5.0" y="2.0"/>
      <point x="-5.0" y="2.0" type="curve"/>
      <point x="-5.0" y="2.0" type="line"/>
      <point x="-109.0" y="2.0" type="line"/>
      <point x="-123.0" y="-102.0" type="line"/>
      <point x="-123.0" y="-102.0" type="line"/>
      <point x="-123.0" y="-102.0"/>
      <point x="-123.0" y="-102.0"/>
      <point x="-123.0" y="-102.0" type="curve"/>
      <point x="-123.0" y="-102.0" type="line"/>
    </contour>
    <contour>
      <point x="77.0" y="-102.0" type="line"/>
      <point x="181.0" y="-102.0" type="line"/>
      <point x="181.0" y="-102.0" type="line"/>
      <point x="181.0" y="-102.0"/>
      <point x="181.0" y="-102.0"/>
      <point x="181.0" y="-102.0" type="curve"/>
      <point x="181.0" y="-102.0" type="line"/>
      <point x="195.0" y="2.0" type="line"/>
      <point x="91.0" y="2.0" type="line"/>
      <point x="91.0" y="2.0" type="line"/>
      <point x="91.0" y="2.0"/>
      <point x="91.0" y="2.0"/>
      <point x="91.0" y="2.0" type="curve"/>
      <point x="91.0" y="2.0" type="line"/>
    </contour>
    <contour>
      <point x="119.0" y="202.0" type="line"/>
      <point x="105.0" y="98.0" type="line"/>
      <point x="105.0" y="98.0" type="line"/>
      <point x="105.0" y="98.0"/>
      <point x="105.0" y="98.0"/>
      <point x="105.0" y="98.0" type="curve"/>
      <point x="105.0" y="98.0" type="line"/>
      <point x="209.0" y="98.0" type="line"/>
      <point x="223.0" y="202.0" type="line"/>
      <point x="223.0" y="202.0" type="line"/>
      <point x="223.0" y="202.0"/>
      <point x="223.0" y="202.0"/>
      <point x="223.0" y="202.0" type="curve"/>
      <point x="223.0" y="202.0" type="line"/>
    </contour>
    <contour>
      <point x="23.0" y="202.0" type="line"/>
      <point x="-81.0" y="202.0" type="line"/>
      <point x="-81.0" y="202.0" type="line"/>
      <point x="-81.0" y="202.0"/>
      <point x="-81.0" y="202.0"/>
      <point x="-81.0" y="202.0" type="curve"/>
      <point x="-81.0" y="202.0" type="line"/>
      <point x="-95.0" y="98.0" type="line"/>
      <point x="9.0" y="98.0" type="line"/>
      <point x="9.0" y="98.0" type="line"/>
      <point x="9.0" y="98.0"/>
      <point x="9.0" y="98.0"/>
      <point x="9.0" y="98.0" type="curve"/>
      <point x="9.0" y="98.0" type="line"/>
    </contour>
  </outline>
</glyph>
<glyph name="Pix08@01_i" format="2">
  <advance width="100"/>
  <outline>
    <contour>
      <point x="-7.0" y="-12.0" type="line"/>
      <point x="-5.0" y="2.0" type="line"/>
      <point x="-5.0" y="2.0" type="line"/>
      <point x="-5.0" y="2.0"/>
      <point x="-5.0" y="2.0"/>
      <point x="-5.0" y="2.0" type="curve"/>
      <point x="-5.0" y="2.0" type="line"/>
      <point x="-19.0" y="2.0" type="line"/>
      <point x="-19.0" y="-2.0" type="line"/>
      <point x="-9.0" y="-2.0" type="line"/>
      <point x="-9.0" y="-2.0"/>
      <point x="-9.0" y="-2.0"/>
      <point x="-9.0" y="-2.0" type="curve"/>
      <point x="-11.0" y="-12.0" type="line"/>
    </contour>
    <contour>
      <point x="89.0" y="-12.0" type="line"/>
      <point x="93.0" y="-12.0" type="line"/>
      <point x="94.0" y="-2.0" type="line"/>
      <point x="94.0" y="-2.0"/>
      <point x="94.0" y="-2.0"/>
      <point x="94.0" y="-2.0" type="curve"/>
      <point x="105.0" y="-2.0" type="line"/>
      <point x="105.0" y="2.0" type="line"/>
      <point x="91.0" y="2.0" type="line"/>
      <point x="91.0" y="2.0" type="line"/>
      <point x="91.0" y="2.0"/>
      <point x="91.0" y="2.0"/>
      <point x="91.0" y="2.0" type="curve"/>
      <point x="91.0" y="2.0" type="line"/>
    </contour>
    <contour>
      <point x="107.0" y="112.0" type="line"/>
      <point x="105.0" y="98.0" type="line"/>
      <point x="105.0" y="98.0" type="line"/>
      <point x="105.0" y="98.0"/>
      <point x="105.0" y="98.0"/>
      <point x="105.0" y="98.0" type="curve"/>
      <point x="105.0" y="98.0" type="line"/>
      <point x="119.0" y="98.0" type="line"/>
      <point x="119.0" y="102.0" type="line"/>
      <point x="109.0" y="102.0" type="line"/>
      <point x="109.0" y="102.0"/>
      <point x="109.0" y="102.0"/>
      <point x="109.0" y="102.0" type="curve"/>
      <point x="111.0" y="112.0" type="line"/>
    </contour>
    <contour>
      <point x="11.0" y="112.0" type="line"/>
      <point x="7.0" y="112.0" type="line"/>
      <point x="6.0" y="102.0" type="line"/>
      <point x="6.0" y="102.0"/>
      <point x="6.0" y="102.0"/>
      <point x="6.0" y="102.0" type="curve"/>
      <point x="-5.0" y="102.0" type="line"/>
      <point x="-5.0" y="98.0" type="line"/>
      <point x="9.0" y="98.0" type="line"/>
      <point x="9.0" y="98.0" type="line"/>
      <point x="9.0" y="98.0"/>
      <point x="9.0" y="98.0"/>
      <point x="9.0" y="98.0" type="curve"/>
      <point x="9.0" y="98.0" type="line"/>
    </contour>
  </outline>
</glyph>
<glyph name="Pix09@00_i" format="2">
  <advance width="100"/>
  <outline>
    <contour>
      <point x="50.0" y="38.0" type="line"/>
      <point x="52.0" y="52.0" type="line"/>
      <point x="52.0" y="52.0" type="line"/>
      <point x="52.0" y="52.0"/>
      <point x="52.0" y="52.0"/>
      <point x="52.0" y="52.0" type="curve"/>
      <point x="52.0" y="52.0" type="line"/>
      <point x="38.0" y="52.0" type="line"/>
      <point x="38.0" y="48.0" type="line"/>
      <point x="38.0" y="48.0" type="line"/>
      <point x="43.36" y="41.3"/>
      <point x="40.64" y="44.7"/>
      <point x="46.0" y="38.0" type="curve"/>
      <point x="46.0" y="38.0" type="line"/>
    </contour>
    <contour>
      <point x="46.0" y="38.0" type="line"/>
      <point x="50.0" y="38.0" type="line"/>
      <point x="50.0" y="38.0" type="line"/>
      <point x="58.04" y="44.7"/>
      <point x="53.96" y="41.3"/>
      <point x="62.0" y="48.0" type="curve"/>
      <point x="62.0" y="48.0" type="line"/>
      <point x="62.0" y="52.0" type="line"/>
      <point x="48.0" y="52.0" type="line"/>
      <point x="48.0" y="52.0" type="line"/>
      <point x="48.0" y="52.0"/>
      <point x="48.0" y="52.0"/>
      <point x="48.0" y="52.0" type="curve"/>
      <point x="48.0" y="52.0" type="line"/>
    </contour>
    <contour>
      <point x="50.0" y="62.0" type="line"/>
      <point x="48.0" y="48.0" type="line"/>
      <point x="48.0" y="48.0" type="line"/>
      <point x="48.0" y="48.0"/>
      <point x="48.0" y="48.0"/>
      <point x="48.0" y="48.0" type="curve"/>
      <point x="48.0" y="48.0" type="line"/>
      <point x="62.0" y="48.0" type="line"/>
      <point x="62.0" y="52.0" type="line"/>
      <point x="62.0" y="52.0" type="line"/>
      <point x="56.64" y="58.7"/>
      <point x="59.36" y="55.3"/>
      <point x="54.0" y="62.0" type="curve"/>
      <point x="54.0" y="62.0" type="line"/>
    </contour>
    <contour>
      <point x="54.0" y="62.0" type="line"/>
      <point x="50.0" y="62.0" type="line"/>
      <point x="50.0" y="62.0" type="line"/>
      <point x="41.96" y="55.3"/>
      <point x="46.04" y="58.7"/>
      <point x="38.0" y="52.0" type="curve"/>
      <point x="38.0" y="52.0" type="line"/>
      <point x="38.0" y="48.0" type="line"/>
      <point x="52.0" y="48.0" type="line"/>
      <point x="52.0" y="48.0" type="line"/>
      <point x="52.0" y="48.0"/>
      <point x="52.0" y="48.0"/>
      <point x="52.0" y="48.0" type="curve"/>
      <point x="52.0" y="48.0" type="line"/>
    </contour>
  </outline>
</glyph>
<glyph name="Pix11@01_i" format="2">
  <advance width="100"/>
  <outline>
    <contour>
      <point x="-5.0" y="-12.0" type="line"/>
      <point x="-5.0" y="-12.0" type="line"/>
      <point x="-5.0" y="-12.0" type="line"/>
      <point x="-5.0" y="-3.959999999999999"/>
      <point x="-10.959999999999999" y="2.0"/>
      <point x="-19.0" y="2.0" type="curve"/>
      <point x="-19.0" y="2.0" type="line"/>
      <point x="-19.0" y="2.0" type="line"/>
      <point x="-19.0" y="-2.0" type="line"/>
      <point x="-19.0" y="-2.0" type="line"/>
      <point x="-13.64" y="-2.0"/>
      <point x="-9.0" y="-6.64"/>
      <point x="-9.0" y="-12.0" type="curve"/>
      <point x="-9.0" y="-12.0" type="line"/>
    </contour>
    <contour>
      <point x="91.0" y="-12.0" type="line"/>
      <point x="95.0" y="-12.0" type="line"/>
      <point x="95.0" y="-12.0" type="line"/>
      <point x="95.0" y="-6.64"/>
      <point x="99.64" y="-2.0"/>
      <point x="105.0" y="-2.0" type="curve"/>
      <point x="105.0" y="-2.0" type="line"/>
      <point x="105.0" y="2.0" type="line"/>
      <point x="105.0" y="2.0" type="line"/>
      <point x="105.0" y="2.0" type="line"/>
      <point x="96.96" y="2.0"/>
      <point x="91.0" y="-3.959999999999999"/>
      <point x="91.0" y="-12.0" type="curve"/>
      <point x="91.0" y="-12.0" type="line"/>
    </contour>
    <contour>
      <point x="105.0" y="112.0" type="line"/>
      <point x="105.0" y="112.0" type="line"/>
      <point x="105.0" y="112.0" type="line"/>
      <point x="105.0" y="103.96"/>
      <point x="110.96" y="98.0"/>
      <point x="119.0" y="98.0" type="curve"/>
      <point x="119.0" y="98.0" type="line"/>
      <point x="119.0" y="98.0" type="line"/>
      <point x="119.0" y="102.0" type="line"/>
      <point x="119.0" y="102.0" type="line"/>
      <point x="113.64" y="102.0"/>
      <point x="109.0" y="106.64"/>
      <point x="109.0" y="112.0" type="curve"/>
      <point x="109.0" y="112.0" type="line"/>
    </contour>
    <contour>
      <point x="9.0" y="112.0" type="line"/>
      <point x="5.0" y="112.0" type="line"/>
      <point x="5.0" y="112.0" type="line"/>
      <point x="5.0" y="106.64"/>
      <point x="0.3600000000000003" y="102.0"/>
      <point x="-5.0" y="102.0" type="curve"/>
      <point x="-5.0" y="102.0" type="line"/>
      <point x="-5.0" y="98.0" type="line"/>
      <point x="-5.0" y="98.0" type="line"/>
      <point x="-5.0" y="98.0" type="line"/>
      <point x="3.040000000000001" y="98.0"/>
      <point x="9.0" y="103.96"/>
      <point x="9.0" y="112.0" type="curve"/>
      <point x="9.0" y="112.0" type="line"/>
    </contour>
  </outline>
</glyph>
<glyph name="Pix11@11" format="2">
  <advance width="100"/>
  <guideline x="50" y="133" angle="90" identifier="0TEQn04FOP"/>
  <guideline x="68" y="100" angle="0" identifier="j7AK2k8kV6"/>
  <guideline x="125" y="50" angle="0" identifier="VHhNmLRBqe"/>
  <outline>
    <contour>
      <point x="2.0" y="-52.0" type="line"/>
      <point x="2.0" y="-52.0" type="line"/>
      <point x="2.0" y="-52.0" type="line"/>
      <point x="2.0" y="-21.18"/>
      <point x="-21.18" y="2.0"/>
      <point x="-52.0" y="2.0" type="curve"/>
      <point x="-52.0" y="2.0" type="line"/>
      <point x="-52.0" y="2.0" type="line"/>
      <point x="-52.0" y="-2.0" type="line"/>
      <point x="-52.0" y="-2.0" type="line"/>
      <point x="-23.86" y="-2.0"/>
      <point x="-2.0" y="-23.86"/>
      <point x="-2.0" y="-52.0" type="curve"/>
      <point x="-2.0" y="-52.0" type="line"/>
    </contour>
    <contour>
      <point x="98.0" y="-52.0" type="line"/>
      <point x="102.0" y="-52.0" type="line"/>
      <point x="102.0" y="-52.0" type="line"/>
      <point x="102.0" y="-23.86"/>
      <point x="123.86" y="-2.0"/>
      <point x="152.0" y="-2.0" type="curve"/>
      <point x="152.0" y="-2.0" type="line"/>
      <point x="152.0" y="2.0" type="line"/>
      <point x="152.0" y="2.0" type="line"/>
      <point x="152.0" y="2.0" type="line"/>
      <point x="121.18" y="2.0"/>
      <point x="98.0" y="-21.18"/>
      <point x="98.0" y="-52.0" type="curve"/>
      <point x="98.0" y="-52.0" type="line"/>
    </contour>
    <contour>
      <point x="98.0" y="152.0" type="line"/>
      <point x="98.0" y="152.0" type="line"/>
      <point x="98.0" y="152.0" type="line"/>
      <point x="98.0" y="121.18"/>
      <point x="121.18" y="98.0"/>
      <point x="152.0" y="98.0" type="curve"/>
      <point x="152.0" y="98.0" type="line"/>
      <point x="152.0" y="98.0" type="line"/>
      <point x="152.0" y="102.0" type="line"/>
      <point x="152.0" y="102.0" type="line"/>
      <point x="123.86" y="102.0"/>
      <point x="102.0" y="123.86"/>
      <point x="102.0" y="152.0" type="curve"/>
      <point x="102.0" y="152.0" type="line"/>
    </contour>
    <contour>
      <point x="2.0" y="152.0" type="line"/>
      <point x="-2.0" y="152.0" type="line"/>
      <point x="-2.0" y="152.0" type="line"/>
      <point x="-2.0" y="123.86"/>
      <point x="-23.86" y="102.0"/>
      <point x="-52.0" y="102.0" type="curve"/>
      <point x="-52.0" y="102.0" type="line"/>
      <point x="-52.0" y="98.0" type="line"/>
      <point x="-52.0" y="98.0" type="line"/>
      <point x="-52.0" y="98.0" type="line"/>
      <point x="-21.18" y="98.0"/>
      <point x="2.0" y="121.18"/>
      <point x="2.0" y="152.0" type="curve"/>
      <point x="2.0" y="152.0" type="line"/>
    </contour>
  </outline>
</glyph>
<glyph name="Pix12@00_i" format="2">
  <advance width="100"/>
  <outline>
    <contour>
      <point x="50.0" y="38.0" type="line"/>
      <point x="50.0" y="42.0" type="line"/>
      <point x="50.0" y="42.0" type="line"/>
      <point x="50.0" y="47.0"/>
      <point x="47.0" y="50.0"/>
      <point x="42.0" y="50.0" type="curve"/>
      <point x="42.0" y="50.0" type="line"/>
      <point x="38.0" y="50.0" type="line"/>
      <point x="37.0" y="38.0" type="line"/>
      <point x="37.0" y="38.0" type="line"/>
      <point x="37.0" y="38.0"/>
      <point x="37.0" y="38.0"/>
      <point x="37.0" y="38.0" type="curve"/>
      <point x="37.0" y="38.0" type="line"/>
    </contour>
    <contour>
      <point x="50.0" y="38.0" type="line"/>
      <point x="61.0" y="38.0" type="line"/>
      <point x="61.0" y="38.0" type="line"/>
      <point x="61.0" y="38.0"/>
      <point x="61.0" y="38.0"/>
      <point x="61.0" y="38.0" type="curve"/>
      <point x="61.0" y="38.0" type="line"/>
      <point x="62.0" y="50.0" type="line"/>
      <point x="58.0" y="50.0" type="line"/>
      <point x="58.0" y="50.0" type="line"/>
      <point x="53.0" y="50.0"/>
      <point x="50.0" y="47.0"/>
      <point x="50.0" y="42.0" type="curve"/>
      <point x="50.0" y="42.0" type="line"/>
    </contour>
    <contour>
      <point x="50.0" y="62.0" type="line"/>
      <point x="50.0" y="58.0" type="line"/>
      <point x="50.0" y="58.0" type="line"/>
      <point x="50.0" y="53.0"/>
      <point x="53.0" y="50.0"/>
      <point x="58.0" y="50.0" type="curve"/>
      <point x="58.0" y="50.0" type="line"/>
      <point x="62.0" y="50.0" type="line"/>
      <point x="63.0" y="62.0" type="line"/>
      <point x="63.0" y="62.0" type="line"/>
      <point x="63.0" y="62.0"/>
      <point x="63.0" y="62.0"/>
      <point x="63.0" y="62.0" type="curve"/>
      <point x="63.0" y="62.0" type="line"/>
    </contour>
    <contour>
      <point x="50.0" y="62.0" type="line"/>
      <point x="39.0" y="62.0" type="line"/>
      <point x="39.0" y="62.0" type="line"/>
      <point x="39.0" y="62.0"/>
      <point x="39.0" y="62.0"/>
      <point x="39.0" y="62.0" type="curve"/>
      <point x="39.0" y="62.0" type="line"/>
      <point x="38.0" y="50.0" type="line"/>
      <point x="42.0" y="50.0" type="line"/>
      <point x="42.0" y="50.0" type="line"/>
      <point x="47.0" y="50.0"/>
      <point x="50.0" y="53.0"/>
      <point x="50.0" y="58.0" type="curve"/>
      <point x="50.0" y="58.0" type="line"/>
    </contour>
  </outline>
</glyph>
<glyph name="Pix12@10" format="2">
  <advance width="100"/>
  <guideline x="50" y="133" angle="90" identifier="0TEQn04FOP"/>
  <guideline x="68" y="100" angle="0" identifier="j7AK2k8kV6"/>
  <guideline x="125" y="50" angle="0" identifier="VHhNmLRBqe"/>
  <outline>
    <contour>
      <point x="50" y="-2" type="line"/>
      <point x="50" y="2" type="line"/>
      <point x="50" y="2" type="line"/>
      <point x="50" y="30"/>
      <point x="30" y="50"/>
      <point x="2" y="50" type="curve"/>
      <point x="2" y="50" type="line"/>
      <point x="-2" y="50" type="line"/>
      <point x="-2" y="-2" type="line"/>
      <point x="-2" y="-2" type="line"/>
      <point x="-2" y="-2"/>
      <point x="-2" y="-2"/>
      <point x="-2" y="-2" type="curve"/>
      <point x="-2" y="-2" type="line"/>
    </contour>
    <contour>
      <point x="50" y="-2" type="line"/>
      <point x="102" y="-2" type="line"/>
      <point x="102" y="-2" type="line"/>
      <point x="102" y="-2"/>
      <point x="102" y="-2"/>
      <point x="102" y="-2" type="curve"/>
      <point x="102" y="-2" type="line"/>
      <point x="102" y="50" type="line"/>
      <point x="98" y="50" type="line"/>
      <point x="98" y="50" type="line"/>
      <point x="70" y="50"/>
      <point x="50" y="30"/>
      <point x="50" y="2" type="curve"/>
      <point x="50" y="2" type="line"/>
    </contour>
    <contour>
      <point x="50" y="102" type="line"/>
      <point x="50" y="98" type="line"/>
      <point x="50" y="98" type="line"/>
      <point x="50" y="70"/>
      <point x="70" y="50"/>
      <point x="98" y="50" type="curve"/>
      <point x="98" y="50" type="line"/>
      <point x="102" y="50" type="line"/>
      <point x="102" y="102" type="line"/>
      <point x="102" y="102" type="line"/>
      <point x="102" y="102"/>
      <point x="102" y="102"/>
      <point x="102" y="102" type="curve"/>
      <point x="102" y="102" type="line"/>
    </contour>
    <contour>
      <point x="50" y="102" type="line"/>
      <point x="-2" y="102" type="line"/>
      <point x="-2" y="102" type="line"/>
      <point x="-2" y="102"/>
      <point x="-2" y="102"/>
      <point x="-2" y="102" type="curve"/>
      <point x="-2" y="102" type="line"/>
      <point x="-2" y="50" type="line"/>
      <point x="2" y="50" type="line"/>
      <point x="2" y="50" type="line"/>
      <point x="30" y="50"/>
      <point x="50" y="70"/>
      <point x="50" y="98" type="curve"/>
      <point x="50" y="98" type="line"/>
    </contour>
  </outline>
</glyph>
<glyph name="Pix12@20_i" format="2">
  <advance width="100"/>
  <outline>
    <contour>
      <point x="36.0" y="-52.0" type="line"/>
      <point x="36.0" y="-48.0" type="line"/>
      <point x="36.0" y="-48.0" type="line"/>
      <point x="45.0" y="13.0"/>
      <point x="13.0" y="50.0"/>
      <point x="-48.0" y="50.0" type="curve"/>
      <point x="-48.0" y="50.0" type="line"/>
      <point x="-52.0" y="50.0" type="line"/>
      <point x="-66.0" y="-52.0" type="line"/>
      <point x="-66.0" y="-52.0" type="line"/>
      <point x="-66.0" y="-52.0"/>
      <point x="-66.0" y="-52.0"/>
      <point x="-66.0" y="-52.0" type="curve"/>
      <point x="-66.0" y="-52.0" type="line"/>
    </contour>
    <contour>
      <point x="36.0" y="-52.0" type="line"/>
      <point x="138.0" y="-52.0" type="line"/>
      <point x="138.0" y="-52.0" type="line"/>
      <point x="138.0" y="-52.0"/>
      <point x="138.0" y="-52.0"/>
      <point x="138.0" y="-52.0" type="curve"/>
      <point x="138.0" y="-52.0" type="line"/>
      <point x="152.0" y="50.0" type="line"/>
      <point x="148.0" y="50.0" type="line"/>
      <point x="148.0" y="50.0" type="line"/>
      <point x="87.0" y="50.0"/>
      <point x="45.0" y="13.0"/>
      <point x="36.0" y="-48.0" type="curve"/>
      <point x="36.0" y="-48.0" type="line"/>
    </contour>
    <contour>
      <point x="64.0" y="152.0" type="line"/>
      <point x="64.0" y="148.0" type="line"/>
      <point x="64.0" y="148.0" type="line"/>
      <point x="55.0" y="87.0"/>
      <point x="87.0" y="50.0"/>
      <point x="148.0" y="50.0" type="curve"/>
      <point x="148.0" y="50.0" type="line"/>
      <point x="152.0" y="50.0" type="line"/>
      <point x="166.0" y="152.0" type="line"/>
      <point x="166.0" y="152.0" type="line"/>
      <point x="166.0" y="152.0"/>
      <point x="166.0" y="152.0"/>
      <point x="166.0" y="152.0" type="curve"/>
      <point x="166.0" y="152.0" type="line"/>
    </contour>
    <contour>
      <point x="64.0" y="152.0" type="line"/>
      <point x="-38.0" y="152.0" type="line"/>
      <point x="-38.0" y="152.0" type="line"/>
      <point x="-38.0" y="152.0"/>
      <point x="-38.0" y="152.0"/>
      <point x="-38.0" y="152.0" type="curve"/>
      <point x="-38.0" y="152.0" type="line"/>
      <point x="-52.0" y="50.0" type="line"/>
      <point x="-48.0" y="50.0" type="line"/>
      <point x="-48.0" y="50.0" type="line"/>
      <point x="13.0" y="50.0"/>
      <point x="55.0" y="87.0"/>
      <point x="64.0" y="148.0" type="curve"/>
      <point x="64.0" y="148.0" type="line"/>
    </contour>
  </outline>
</glyph>
<glyph name="Pix12@21_i" format="2">
  <advance width="100"/>
  <outline>
    <contour>
      <point x="-21.0" y="-102.0" type="line"/>
      <point x="-21.0" y="-102.0" type="line"/>
      <point x="-21.0" y="-102.0" type="line"/>
      <point x="-14.3" y="-40.36"/>
      <point x="-47.36" y="0.0"/>
      <point x="-109.0" y="0.0" type="curve"/>
      <point x="-109.0" y="0.0" type="line"/>
      <point x="-109.0" y="0.0" type="line"/>
      <point x="-123.0" y="-102.0" type="line"/>
      <point x="-123.0" y="-102.0" type="line"/>
      <point x="-123.0" y="-103.34"/>
      <point x="-123.0" y="-103.34"/>
      <point x="-123.0" y="-102.0" type="curve"/>
      <point x="-123.0" y="-102.0" type="line"/>
    </contour>
    <contour>
      <point x="79.0" y="-102.0" type="line"/>
      <point x="181.0" y="-102.0" type="line"/>
      <point x="181.0" y="-102.0" type="line"/>
      <point x="181.0" y="-102.0"/>
      <point x="181.0" y="-102.0"/>
      <point x="181.0" y="-102.0" type="curve"/>
      <point x="181.0" y="-102.0" type="line"/>
      <point x="195.0" y="0.0" type="line"/>
      <point x="195.0" y="0.0" type="line"/>
      <point x="195.0" y="0.0" type="line"/>
      <point x="136.04" y="0.0"/>
      <point x="88.38" y="-41.699999999999996"/>
      <point x="79.0" y="-102.0" type="curve"/>
      <point x="79.0" y="-102.0" type="line"/>
    </contour>
    <contour>
      <point x="121.0" y="202.0" type="line"/>
      <point x="121.0" y="202.0" type="line"/>
      <point x="121.0" y="202.0" type="line"/>
      <point x="111.62" y="141.7"/>
      <point x="147.36" y="100.0"/>
      <point x="209.0" y="100.0" type="curve"/>
      <point x="209.0" y="100.0" type="line"/>
      <point x="209.0" y="100.0" type="line"/>
      <point x="223.0" y="202.0" type="line"/>
      <point x="223.0" y="202.0" type="line"/>
      <point x="223.0" y="202.0"/>
      <point x="223.0" y="202.0"/>
      <point x="223.0" y="202.0" type="curve"/>
      <point x="223.0" y="202.0" type="line"/>
    </contour>
    <contour>
      <point x="21.0" y="202.0" type="line"/>
      <point x="-81.0" y="202.0" type="line"/>
      <point x="-81.0" y="202.0" type="line"/>
      <point x="-81.0" y="202.0"/>
      <point x="-81.0" y="202.0"/>
      <point x="-81.0" y="202.0" type="curve"/>
      <point x="-81.0" y="202.0" type="line"/>
      <point x="-95.0" y="100.0" type="line"/>
      <point x="-95.0" y="100.0" type="line"/>
      <point x="-95.0" y="100.0" type="line"/>
      <point x="-36.04" y="100.0"/>
      <point x="11.62" y="141.7"/>
      <point x="21.0" y="202.0" type="curve"/>
      <point x="21.0" y="202.0" type="line"/>
    </contour>
  </outline>
</glyph>
<glyph name="Pixel@MODEL_i" format="2">
  <advance width="100"/>
  <outline>
    <contour>
      <point x="43" y="0.0" type="line"/>
      <point x="50" y="50.0" type="line"/>
      <point x="50" y="50.0" type="line"/>
      <point x="50.0" y="50.0"/>
      <point x="50.0" y="50.0"/>
      <point x="50" y="50.0" type="curve"/>
      <point x="50" y="50.0" type="line"/>
      <point x="0" y="50.0" type="line"/>
      <point x="-7" y="0.0" type="line"/>
      <point x="-7" y="0.0" type="line"/>
      <point x="-7.0" y="0.0"/>
      <point x="-7.0" y="0.0"/>
      <point x="-7" y="0.0" type="curve"/>
      <point x="-7" y="0.0" type="line"/>
    </contour>
    <contour>
      <point x="43.0" y="0.0" type="line"/>
      <point x="93.0" y="0.0" type="line"/>
      <point x="93.0" y="0.0" type="line"/>
      <point x="93.0" y="0.0"/>
      <point x="93.0" y="0.0"/>
      <point x="93.0" y="0.0" type="curve"/>
      <point x="93.0" y="0.0" type="line"/>
      <point x="100.0" y="50.0" type="line"/>
      <point x="50.0" y="50.0" type="line"/>
      <point x="50.0" y="50.0" type="line"/>
      <point x="50.0" y="50.0"/>
      <point x="50.0" y="50.0"/>
      <point x="50.0" y="50.0" type="curve"/>
      <point x="50.0" y="50.0" type="line"/>
    </contour>
    <contour>
      <point x="57.0" y="100.0" type="line"/>
      <point x="7.0" y="100.0" type="line"/>
      <point x="7.0" y="100.0" type="line"/>
      <point x="7.0" y="100.0"/>
      <point x="7.0" y="100.0"/>
      <point x="7.0" y="100.0" type="curve"/>
      <point x="7.0" y="100.0" type="line"/>
      <point x="0.0" y="50.0" type="line"/>
      <point x="50.0" y="50.0" type="line"/>
      <point x="50.0" y="50.0" type="line"/>
      <point x="50.0" y="50.0"/>
      <point x="50.0" y="50.0"/>
      <point x="50.0" y="50.0" type="curve"/>
      <point x="50.0" y="50.0" type="line"/>
    </contour>
    <contour>
      <point x="57.0" y="100.0" type="line"/>
      <point x="50.0" y="50.0" type="line"/>
      <point x="50.0" y="50.0" type="line"/>
      <point x="50.0" y="50.0"/>
      <point x="50.0" y="50.0"/>
      <point x="50.0" y="50.0" type="curve"/>
      <point x="50.0" y="50.0" type="line"/>
      <point x="100.0" y="50.0" type="line"/>
      <point x="107.0" y="100.0" type="line"/>
      <point x="107.0" y="100.0" type="line"/>
      <point x="107.0" y="100.0"/>
      <point x="107.0" y="100.0"/>
      <point x="107.0" y="100.0" type="curve"/>
      <point x="107.0" y="100.0" type="line"/>
    </contour>
  </outline>
</glyph>
